M48
; DRILL file {KiCad 9.0.0} date 2025-12-11T11:24:09+0100
; FORMAT={-:-/ absolute / metric / decimal}
; #@! TF.CreationDate,2025-12-11T11:24:09+01:00
; #@! TF.GenerationSoftware,Kicad,Pcbnew,9.0.0
; #@! TF.FileFunction,Plated,1,2,PTH
FMAT,2
METRIC
; #@! TA.AperFunction,Plated,PTH,ViaDrill
T1C0.300
; #@! TA.AperFunction,Plated,PTH,ComponentDrill
T2C0.900
; #@! TA.AperFunction,Plated,PTH,ComponentDrill
T3C1.000
%
G90
G05
T1
X201.5Y-95.6
X206.2Y-94.4
X207.25Y-136.85
X207.4Y-144.3
X209.2Y-145.3
X212.25Y-152.6
X213.8Y-140.0
X215.1Y-138.4
X216.9Y-141.9
X217.4Y-144.35
X218.0Y-150.65
X218.5Y-148.8
X220.1Y-149.1
X222.3Y-145.0
X224.232Y-151.12
X227.5Y-133.0
X230.6Y-94.45
T2
X204.47Y-104.648
X204.47Y-107.188
X204.47Y-109.728
X204.47Y-112.268
X204.47Y-114.808
X204.47Y-117.348
X204.47Y-119.888
X204.47Y-122.428
X210.525Y-135.7
X213.065Y-135.7
X217.625Y-135.7
X220.165Y-135.7
X227.33Y-104.648
X227.33Y-107.188
X227.33Y-109.728
X227.33Y-112.268
X227.33Y-114.808
X227.33Y-117.348
X227.33Y-119.888
X227.33Y-122.428
T3
X207.4Y-92.4
X209.94Y-92.4
X212.48Y-92.4
X215.02Y-92.4
X217.56Y-92.4
X220.1Y-92.4
X222.64Y-92.4
X225.18Y-92.4
T2
G00X209.715Y-157.4
M15
G01X209.715Y-159.0
M16
G05
G00X221.115Y-157.4
M15
G01X221.115Y-159.0
M16
G05
M30
