%TF.GenerationSoftware,KiCad,Pcbnew,9.0.0*%
%TF.CreationDate,2025-12-11T11:24:11+01:00*%
%TF.ProjectId,rfidReader,72666964-5265-4616-9465-722e6b696361,rev?*%
%TF.SameCoordinates,Original*%
%TF.FileFunction,Legend,Top*%
%TF.FilePolarity,Positive*%
%FSLAX46Y46*%
G04 Gerber Fmt 4.6, Leading zero omitted, Abs format (unit mm)*
G04 Created by KiCad (PCBNEW 9.0.0) date 2025-12-11 11:24:11*
%MOMM*%
%LPD*%
G01*
G04 APERTURE LIST*
%ADD10C,0.150000*%
%ADD11C,0.120000*%
G04 APERTURE END LIST*
D10*
X227781009Y-146510000D02*
X227781009Y-146843333D01*
X228304819Y-146843333D02*
X227304819Y-146843333D01*
X227304819Y-146843333D02*
X227304819Y-146367143D01*
X227400057Y-146033809D02*
X227352438Y-145986190D01*
X227352438Y-145986190D02*
X227304819Y-145890952D01*
X227304819Y-145890952D02*
X227304819Y-145652857D01*
X227304819Y-145652857D02*
X227352438Y-145557619D01*
X227352438Y-145557619D02*
X227400057Y-145510000D01*
X227400057Y-145510000D02*
X227495295Y-145462381D01*
X227495295Y-145462381D02*
X227590533Y-145462381D01*
X227590533Y-145462381D02*
X227733390Y-145510000D01*
X227733390Y-145510000D02*
X228304819Y-146081428D01*
X228304819Y-146081428D02*
X228304819Y-145462381D01*
X222869819Y-158533333D02*
X223584104Y-158533333D01*
X223584104Y-158533333D02*
X223726961Y-158580952D01*
X223726961Y-158580952D02*
X223822200Y-158676190D01*
X223822200Y-158676190D02*
X223869819Y-158819047D01*
X223869819Y-158819047D02*
X223869819Y-158914285D01*
X223869819Y-157533333D02*
X223869819Y-158104761D01*
X223869819Y-157819047D02*
X222869819Y-157819047D01*
X222869819Y-157819047D02*
X223012676Y-157914285D01*
X223012676Y-157914285D02*
X223107914Y-158009523D01*
X223107914Y-158009523D02*
X223155533Y-158104761D01*
X213154819Y-152397614D02*
X213964342Y-152397614D01*
X213964342Y-152397614D02*
X214059580Y-152349995D01*
X214059580Y-152349995D02*
X214107200Y-152302376D01*
X214107200Y-152302376D02*
X214154819Y-152207138D01*
X214154819Y-152207138D02*
X214154819Y-152016662D01*
X214154819Y-152016662D02*
X214107200Y-151921424D01*
X214107200Y-151921424D02*
X214059580Y-151873805D01*
X214059580Y-151873805D02*
X213964342Y-151826186D01*
X213964342Y-151826186D02*
X213154819Y-151826186D01*
X213154819Y-151445233D02*
X213154819Y-150826186D01*
X213154819Y-150826186D02*
X213535771Y-151159519D01*
X213535771Y-151159519D02*
X213535771Y-151016662D01*
X213535771Y-151016662D02*
X213583390Y-150921424D01*
X213583390Y-150921424D02*
X213631009Y-150873805D01*
X213631009Y-150873805D02*
X213726247Y-150826186D01*
X213726247Y-150826186D02*
X213964342Y-150826186D01*
X213964342Y-150826186D02*
X214059580Y-150873805D01*
X214059580Y-150873805D02*
X214107200Y-150921424D01*
X214107200Y-150921424D02*
X214154819Y-151016662D01*
X214154819Y-151016662D02*
X214154819Y-151302376D01*
X214154819Y-151302376D02*
X214107200Y-151397614D01*
X214107200Y-151397614D02*
X214059580Y-151445233D01*
X204513333Y-135385580D02*
X204465714Y-135433200D01*
X204465714Y-135433200D02*
X204322857Y-135480819D01*
X204322857Y-135480819D02*
X204227619Y-135480819D01*
X204227619Y-135480819D02*
X204084762Y-135433200D01*
X204084762Y-135433200D02*
X203989524Y-135337961D01*
X203989524Y-135337961D02*
X203941905Y-135242723D01*
X203941905Y-135242723D02*
X203894286Y-135052247D01*
X203894286Y-135052247D02*
X203894286Y-134909390D01*
X203894286Y-134909390D02*
X203941905Y-134718914D01*
X203941905Y-134718914D02*
X203989524Y-134623676D01*
X203989524Y-134623676D02*
X204084762Y-134528438D01*
X204084762Y-134528438D02*
X204227619Y-134480819D01*
X204227619Y-134480819D02*
X204322857Y-134480819D01*
X204322857Y-134480819D02*
X204465714Y-134528438D01*
X204465714Y-134528438D02*
X204513333Y-134576057D01*
X204894286Y-134576057D02*
X204941905Y-134528438D01*
X204941905Y-134528438D02*
X205037143Y-134480819D01*
X205037143Y-134480819D02*
X205275238Y-134480819D01*
X205275238Y-134480819D02*
X205370476Y-134528438D01*
X205370476Y-134528438D02*
X205418095Y-134576057D01*
X205418095Y-134576057D02*
X205465714Y-134671295D01*
X205465714Y-134671295D02*
X205465714Y-134766533D01*
X205465714Y-134766533D02*
X205418095Y-134909390D01*
X205418095Y-134909390D02*
X204846667Y-135480819D01*
X204846667Y-135480819D02*
X205465714Y-135480819D01*
X210854819Y-148224666D02*
X211664342Y-148224666D01*
X211664342Y-148224666D02*
X211759580Y-148177047D01*
X211759580Y-148177047D02*
X211807200Y-148129428D01*
X211807200Y-148129428D02*
X211854819Y-148034190D01*
X211854819Y-148034190D02*
X211854819Y-147843714D01*
X211854819Y-147843714D02*
X211807200Y-147748476D01*
X211807200Y-147748476D02*
X211759580Y-147700857D01*
X211759580Y-147700857D02*
X211664342Y-147653238D01*
X211664342Y-147653238D02*
X210854819Y-147653238D01*
X211854819Y-146653238D02*
X211854819Y-147224666D01*
X211854819Y-146938952D02*
X210854819Y-146938952D01*
X210854819Y-146938952D02*
X210997676Y-147034190D01*
X210997676Y-147034190D02*
X211092914Y-147129428D01*
X211092914Y-147129428D02*
X211140533Y-147224666D01*
X211569104Y-146272285D02*
X211569104Y-145796095D01*
X211854819Y-146367523D02*
X210854819Y-146034190D01*
X210854819Y-146034190D02*
X211854819Y-145700857D01*
X211854819Y-144843714D02*
X211854819Y-145415142D01*
X211854819Y-145129428D02*
X210854819Y-145129428D01*
X210854819Y-145129428D02*
X210997676Y-145224666D01*
X210997676Y-145224666D02*
X211092914Y-145319904D01*
X211092914Y-145319904D02*
X211140533Y-145415142D01*
X225103333Y-152603580D02*
X225055714Y-152651200D01*
X225055714Y-152651200D02*
X224912857Y-152698819D01*
X224912857Y-152698819D02*
X224817619Y-152698819D01*
X224817619Y-152698819D02*
X224674762Y-152651200D01*
X224674762Y-152651200D02*
X224579524Y-152555961D01*
X224579524Y-152555961D02*
X224531905Y-152460723D01*
X224531905Y-152460723D02*
X224484286Y-152270247D01*
X224484286Y-152270247D02*
X224484286Y-152127390D01*
X224484286Y-152127390D02*
X224531905Y-151936914D01*
X224531905Y-151936914D02*
X224579524Y-151841676D01*
X224579524Y-151841676D02*
X224674762Y-151746438D01*
X224674762Y-151746438D02*
X224817619Y-151698819D01*
X224817619Y-151698819D02*
X224912857Y-151698819D01*
X224912857Y-151698819D02*
X225055714Y-151746438D01*
X225055714Y-151746438D02*
X225103333Y-151794057D01*
X225960476Y-152032152D02*
X225960476Y-152698819D01*
X225722381Y-151651200D02*
X225484286Y-152365485D01*
X225484286Y-152365485D02*
X226103333Y-152365485D01*
X225103333Y-149799913D02*
X225055714Y-149847533D01*
X225055714Y-149847533D02*
X224912857Y-149895152D01*
X224912857Y-149895152D02*
X224817619Y-149895152D01*
X224817619Y-149895152D02*
X224674762Y-149847533D01*
X224674762Y-149847533D02*
X224579524Y-149752294D01*
X224579524Y-149752294D02*
X224531905Y-149657056D01*
X224531905Y-149657056D02*
X224484286Y-149466580D01*
X224484286Y-149466580D02*
X224484286Y-149323723D01*
X224484286Y-149323723D02*
X224531905Y-149133247D01*
X224531905Y-149133247D02*
X224579524Y-149038009D01*
X224579524Y-149038009D02*
X224674762Y-148942771D01*
X224674762Y-148942771D02*
X224817619Y-148895152D01*
X224817619Y-148895152D02*
X224912857Y-148895152D01*
X224912857Y-148895152D02*
X225055714Y-148942771D01*
X225055714Y-148942771D02*
X225103333Y-148990390D01*
X225436667Y-148895152D02*
X226055714Y-148895152D01*
X226055714Y-148895152D02*
X225722381Y-149276104D01*
X225722381Y-149276104D02*
X225865238Y-149276104D01*
X225865238Y-149276104D02*
X225960476Y-149323723D01*
X225960476Y-149323723D02*
X226008095Y-149371342D01*
X226008095Y-149371342D02*
X226055714Y-149466580D01*
X226055714Y-149466580D02*
X226055714Y-149704675D01*
X226055714Y-149704675D02*
X226008095Y-149799913D01*
X226008095Y-149799913D02*
X225960476Y-149847533D01*
X225960476Y-149847533D02*
X225865238Y-149895152D01*
X225865238Y-149895152D02*
X225579524Y-149895152D01*
X225579524Y-149895152D02*
X225484286Y-149847533D01*
X225484286Y-149847533D02*
X225436667Y-149799913D01*
X204513333Y-131321580D02*
X204465714Y-131369200D01*
X204465714Y-131369200D02*
X204322857Y-131416819D01*
X204322857Y-131416819D02*
X204227619Y-131416819D01*
X204227619Y-131416819D02*
X204084762Y-131369200D01*
X204084762Y-131369200D02*
X203989524Y-131273961D01*
X203989524Y-131273961D02*
X203941905Y-131178723D01*
X203941905Y-131178723D02*
X203894286Y-130988247D01*
X203894286Y-130988247D02*
X203894286Y-130845390D01*
X203894286Y-130845390D02*
X203941905Y-130654914D01*
X203941905Y-130654914D02*
X203989524Y-130559676D01*
X203989524Y-130559676D02*
X204084762Y-130464438D01*
X204084762Y-130464438D02*
X204227619Y-130416819D01*
X204227619Y-130416819D02*
X204322857Y-130416819D01*
X204322857Y-130416819D02*
X204465714Y-130464438D01*
X204465714Y-130464438D02*
X204513333Y-130512057D01*
X205465714Y-131416819D02*
X204894286Y-131416819D01*
X205180000Y-131416819D02*
X205180000Y-130416819D01*
X205180000Y-130416819D02*
X205084762Y-130559676D01*
X205084762Y-130559676D02*
X204989524Y-130654914D01*
X204989524Y-130654914D02*
X204894286Y-130702533D01*
X220233333Y-145604819D02*
X219900000Y-145128628D01*
X219661905Y-145604819D02*
X219661905Y-144604819D01*
X219661905Y-144604819D02*
X220042857Y-144604819D01*
X220042857Y-144604819D02*
X220138095Y-144652438D01*
X220138095Y-144652438D02*
X220185714Y-144700057D01*
X220185714Y-144700057D02*
X220233333Y-144795295D01*
X220233333Y-144795295D02*
X220233333Y-144938152D01*
X220233333Y-144938152D02*
X220185714Y-145033390D01*
X220185714Y-145033390D02*
X220138095Y-145081009D01*
X220138095Y-145081009D02*
X220042857Y-145128628D01*
X220042857Y-145128628D02*
X219661905Y-145128628D01*
X220804762Y-145033390D02*
X220709524Y-144985771D01*
X220709524Y-144985771D02*
X220661905Y-144938152D01*
X220661905Y-144938152D02*
X220614286Y-144842914D01*
X220614286Y-144842914D02*
X220614286Y-144795295D01*
X220614286Y-144795295D02*
X220661905Y-144700057D01*
X220661905Y-144700057D02*
X220709524Y-144652438D01*
X220709524Y-144652438D02*
X220804762Y-144604819D01*
X220804762Y-144604819D02*
X220995238Y-144604819D01*
X220995238Y-144604819D02*
X221090476Y-144652438D01*
X221090476Y-144652438D02*
X221138095Y-144700057D01*
X221138095Y-144700057D02*
X221185714Y-144795295D01*
X221185714Y-144795295D02*
X221185714Y-144842914D01*
X221185714Y-144842914D02*
X221138095Y-144938152D01*
X221138095Y-144938152D02*
X221090476Y-144985771D01*
X221090476Y-144985771D02*
X220995238Y-145033390D01*
X220995238Y-145033390D02*
X220804762Y-145033390D01*
X220804762Y-145033390D02*
X220709524Y-145081009D01*
X220709524Y-145081009D02*
X220661905Y-145128628D01*
X220661905Y-145128628D02*
X220614286Y-145223866D01*
X220614286Y-145223866D02*
X220614286Y-145414342D01*
X220614286Y-145414342D02*
X220661905Y-145509580D01*
X220661905Y-145509580D02*
X220709524Y-145557200D01*
X220709524Y-145557200D02*
X220804762Y-145604819D01*
X220804762Y-145604819D02*
X220995238Y-145604819D01*
X220995238Y-145604819D02*
X221090476Y-145557200D01*
X221090476Y-145557200D02*
X221138095Y-145509580D01*
X221138095Y-145509580D02*
X221185714Y-145414342D01*
X221185714Y-145414342D02*
X221185714Y-145223866D01*
X221185714Y-145223866D02*
X221138095Y-145128628D01*
X221138095Y-145128628D02*
X221090476Y-145081009D01*
X221090476Y-145081009D02*
X220995238Y-145033390D01*
X204084819Y-93161904D02*
X204894342Y-93161904D01*
X204894342Y-93161904D02*
X204989580Y-93114285D01*
X204989580Y-93114285D02*
X205037200Y-93066666D01*
X205037200Y-93066666D02*
X205084819Y-92971428D01*
X205084819Y-92971428D02*
X205084819Y-92780952D01*
X205084819Y-92780952D02*
X205037200Y-92685714D01*
X205037200Y-92685714D02*
X204989580Y-92638095D01*
X204989580Y-92638095D02*
X204894342Y-92590476D01*
X204894342Y-92590476D02*
X204084819Y-92590476D01*
X204180057Y-92161904D02*
X204132438Y-92114285D01*
X204132438Y-92114285D02*
X204084819Y-92019047D01*
X204084819Y-92019047D02*
X204084819Y-91780952D01*
X204084819Y-91780952D02*
X204132438Y-91685714D01*
X204132438Y-91685714D02*
X204180057Y-91638095D01*
X204180057Y-91638095D02*
X204275295Y-91590476D01*
X204275295Y-91590476D02*
X204370533Y-91590476D01*
X204370533Y-91590476D02*
X204513390Y-91638095D01*
X204513390Y-91638095D02*
X205084819Y-92209523D01*
X205084819Y-92209523D02*
X205084819Y-91590476D01*
X214799762Y-131194819D02*
X215133095Y-132194819D01*
X215133095Y-132194819D02*
X215466428Y-131194819D01*
X216228333Y-132194819D02*
X216228333Y-131671009D01*
X216228333Y-131671009D02*
X216180714Y-131575771D01*
X216180714Y-131575771D02*
X216085476Y-131528152D01*
X216085476Y-131528152D02*
X215895000Y-131528152D01*
X215895000Y-131528152D02*
X215799762Y-131575771D01*
X216228333Y-132147200D02*
X216133095Y-132194819D01*
X216133095Y-132194819D02*
X215895000Y-132194819D01*
X215895000Y-132194819D02*
X215799762Y-132147200D01*
X215799762Y-132147200D02*
X215752143Y-132051961D01*
X215752143Y-132051961D02*
X215752143Y-131956723D01*
X215752143Y-131956723D02*
X215799762Y-131861485D01*
X215799762Y-131861485D02*
X215895000Y-131813866D01*
X215895000Y-131813866D02*
X216133095Y-131813866D01*
X216133095Y-131813866D02*
X216228333Y-131766247D01*
X216847381Y-132194819D02*
X216752143Y-132147200D01*
X216752143Y-132147200D02*
X216704524Y-132051961D01*
X216704524Y-132051961D02*
X216704524Y-131194819D01*
X217228334Y-132194819D02*
X217228334Y-131528152D01*
X217228334Y-131194819D02*
X217180715Y-131242438D01*
X217180715Y-131242438D02*
X217228334Y-131290057D01*
X217228334Y-131290057D02*
X217275953Y-131242438D01*
X217275953Y-131242438D02*
X217228334Y-131194819D01*
X217228334Y-131194819D02*
X217228334Y-131290057D01*
X218133095Y-132194819D02*
X218133095Y-131194819D01*
X218133095Y-132147200D02*
X218037857Y-132194819D01*
X218037857Y-132194819D02*
X217847381Y-132194819D01*
X217847381Y-132194819D02*
X217752143Y-132147200D01*
X217752143Y-132147200D02*
X217704524Y-132099580D01*
X217704524Y-132099580D02*
X217656905Y-132004342D01*
X217656905Y-132004342D02*
X217656905Y-131718628D01*
X217656905Y-131718628D02*
X217704524Y-131623390D01*
X217704524Y-131623390D02*
X217752143Y-131575771D01*
X217752143Y-131575771D02*
X217847381Y-131528152D01*
X217847381Y-131528152D02*
X218037857Y-131528152D01*
X218037857Y-131528152D02*
X218133095Y-131575771D01*
X219037857Y-132194819D02*
X219037857Y-131671009D01*
X219037857Y-131671009D02*
X218990238Y-131575771D01*
X218990238Y-131575771D02*
X218895000Y-131528152D01*
X218895000Y-131528152D02*
X218704524Y-131528152D01*
X218704524Y-131528152D02*
X218609286Y-131575771D01*
X219037857Y-132147200D02*
X218942619Y-132194819D01*
X218942619Y-132194819D02*
X218704524Y-132194819D01*
X218704524Y-132194819D02*
X218609286Y-132147200D01*
X218609286Y-132147200D02*
X218561667Y-132051961D01*
X218561667Y-132051961D02*
X218561667Y-131956723D01*
X218561667Y-131956723D02*
X218609286Y-131861485D01*
X218609286Y-131861485D02*
X218704524Y-131813866D01*
X218704524Y-131813866D02*
X218942619Y-131813866D01*
X218942619Y-131813866D02*
X219037857Y-131766247D01*
X219371191Y-131528152D02*
X219752143Y-131528152D01*
X219514048Y-131194819D02*
X219514048Y-132051961D01*
X219514048Y-132051961D02*
X219561667Y-132147200D01*
X219561667Y-132147200D02*
X219656905Y-132194819D01*
X219656905Y-132194819D02*
X219752143Y-132194819D01*
X220085477Y-132194819D02*
X220085477Y-131528152D01*
X220085477Y-131194819D02*
X220037858Y-131242438D01*
X220037858Y-131242438D02*
X220085477Y-131290057D01*
X220085477Y-131290057D02*
X220133096Y-131242438D01*
X220133096Y-131242438D02*
X220085477Y-131194819D01*
X220085477Y-131194819D02*
X220085477Y-131290057D01*
X220704524Y-132194819D02*
X220609286Y-132147200D01*
X220609286Y-132147200D02*
X220561667Y-132099580D01*
X220561667Y-132099580D02*
X220514048Y-132004342D01*
X220514048Y-132004342D02*
X220514048Y-131718628D01*
X220514048Y-131718628D02*
X220561667Y-131623390D01*
X220561667Y-131623390D02*
X220609286Y-131575771D01*
X220609286Y-131575771D02*
X220704524Y-131528152D01*
X220704524Y-131528152D02*
X220847381Y-131528152D01*
X220847381Y-131528152D02*
X220942619Y-131575771D01*
X220942619Y-131575771D02*
X220990238Y-131623390D01*
X220990238Y-131623390D02*
X221037857Y-131718628D01*
X221037857Y-131718628D02*
X221037857Y-132004342D01*
X221037857Y-132004342D02*
X220990238Y-132099580D01*
X220990238Y-132099580D02*
X220942619Y-132147200D01*
X220942619Y-132147200D02*
X220847381Y-132194819D01*
X220847381Y-132194819D02*
X220704524Y-132194819D01*
X221466429Y-131528152D02*
X221466429Y-132194819D01*
X221466429Y-131623390D02*
X221514048Y-131575771D01*
X221514048Y-131575771D02*
X221609286Y-131528152D01*
X221609286Y-131528152D02*
X221752143Y-131528152D01*
X221752143Y-131528152D02*
X221847381Y-131575771D01*
X221847381Y-131575771D02*
X221895000Y-131671009D01*
X221895000Y-131671009D02*
X221895000Y-132194819D01*
X222895000Y-132194819D02*
X222323572Y-132194819D01*
X222609286Y-132194819D02*
X222609286Y-131194819D01*
X222609286Y-131194819D02*
X222514048Y-131337676D01*
X222514048Y-131337676D02*
X222418810Y-131432914D01*
X222418810Y-131432914D02*
X222323572Y-131480533D01*
X200888095Y-154406819D02*
X201459523Y-154406819D01*
X201173809Y-155406819D02*
X201173809Y-154406819D01*
X201792857Y-155406819D02*
X201792857Y-154406819D01*
X201792857Y-154406819D02*
X202173809Y-154406819D01*
X202173809Y-154406819D02*
X202269047Y-154454438D01*
X202269047Y-154454438D02*
X202316666Y-154502057D01*
X202316666Y-154502057D02*
X202364285Y-154597295D01*
X202364285Y-154597295D02*
X202364285Y-154740152D01*
X202364285Y-154740152D02*
X202316666Y-154835390D01*
X202316666Y-154835390D02*
X202269047Y-154883009D01*
X202269047Y-154883009D02*
X202173809Y-154930628D01*
X202173809Y-154930628D02*
X201792857Y-154930628D01*
X203221428Y-154740152D02*
X203221428Y-155406819D01*
X202983333Y-154359200D02*
X202745238Y-155073485D01*
X202745238Y-155073485D02*
X203364285Y-155073485D01*
X200888095Y-140406819D02*
X201459523Y-140406819D01*
X201173809Y-141406819D02*
X201173809Y-140406819D01*
X201792857Y-141406819D02*
X201792857Y-140406819D01*
X201792857Y-140406819D02*
X202173809Y-140406819D01*
X202173809Y-140406819D02*
X202269047Y-140454438D01*
X202269047Y-140454438D02*
X202316666Y-140502057D01*
X202316666Y-140502057D02*
X202364285Y-140597295D01*
X202364285Y-140597295D02*
X202364285Y-140740152D01*
X202364285Y-140740152D02*
X202316666Y-140835390D01*
X202316666Y-140835390D02*
X202269047Y-140883009D01*
X202269047Y-140883009D02*
X202173809Y-140930628D01*
X202173809Y-140930628D02*
X201792857Y-140930628D01*
X202745238Y-140502057D02*
X202792857Y-140454438D01*
X202792857Y-140454438D02*
X202888095Y-140406819D01*
X202888095Y-140406819D02*
X203126190Y-140406819D01*
X203126190Y-140406819D02*
X203221428Y-140454438D01*
X203221428Y-140454438D02*
X203269047Y-140502057D01*
X203269047Y-140502057D02*
X203316666Y-140597295D01*
X203316666Y-140597295D02*
X203316666Y-140692533D01*
X203316666Y-140692533D02*
X203269047Y-140835390D01*
X203269047Y-140835390D02*
X202697619Y-141406819D01*
X202697619Y-141406819D02*
X203316666Y-141406819D01*
X208914047Y-132194819D02*
X208914047Y-131194819D01*
X208914047Y-131194819D02*
X209247380Y-131909104D01*
X209247380Y-131909104D02*
X209580713Y-131194819D01*
X209580713Y-131194819D02*
X209580713Y-132194819D01*
X210485475Y-132194819D02*
X210485475Y-131671009D01*
X210485475Y-131671009D02*
X210437856Y-131575771D01*
X210437856Y-131575771D02*
X210342618Y-131528152D01*
X210342618Y-131528152D02*
X210152142Y-131528152D01*
X210152142Y-131528152D02*
X210056904Y-131575771D01*
X210485475Y-132147200D02*
X210390237Y-132194819D01*
X210390237Y-132194819D02*
X210152142Y-132194819D01*
X210152142Y-132194819D02*
X210056904Y-132147200D01*
X210056904Y-132147200D02*
X210009285Y-132051961D01*
X210009285Y-132051961D02*
X210009285Y-131956723D01*
X210009285Y-131956723D02*
X210056904Y-131861485D01*
X210056904Y-131861485D02*
X210152142Y-131813866D01*
X210152142Y-131813866D02*
X210390237Y-131813866D01*
X210390237Y-131813866D02*
X210485475Y-131766247D01*
X210961666Y-132194819D02*
X210961666Y-131528152D01*
X210961666Y-131718628D02*
X211009285Y-131623390D01*
X211009285Y-131623390D02*
X211056904Y-131575771D01*
X211056904Y-131575771D02*
X211152142Y-131528152D01*
X211152142Y-131528152D02*
X211247380Y-131528152D01*
X212009285Y-132147200D02*
X211914047Y-132194819D01*
X211914047Y-132194819D02*
X211723571Y-132194819D01*
X211723571Y-132194819D02*
X211628333Y-132147200D01*
X211628333Y-132147200D02*
X211580714Y-132099580D01*
X211580714Y-132099580D02*
X211533095Y-132004342D01*
X211533095Y-132004342D02*
X211533095Y-131718628D01*
X211533095Y-131718628D02*
X211580714Y-131623390D01*
X211580714Y-131623390D02*
X211628333Y-131575771D01*
X211628333Y-131575771D02*
X211723571Y-131528152D01*
X211723571Y-131528152D02*
X211914047Y-131528152D01*
X211914047Y-131528152D02*
X212009285Y-131575771D01*
X212437857Y-132194819D02*
X212437857Y-131194819D01*
X212866428Y-132194819D02*
X212866428Y-131671009D01*
X212866428Y-131671009D02*
X212818809Y-131575771D01*
X212818809Y-131575771D02*
X212723571Y-131528152D01*
X212723571Y-131528152D02*
X212580714Y-131528152D01*
X212580714Y-131528152D02*
X212485476Y-131575771D01*
X212485476Y-131575771D02*
X212437857Y-131623390D01*
X213723571Y-132147200D02*
X213628333Y-132194819D01*
X213628333Y-132194819D02*
X213437857Y-132194819D01*
X213437857Y-132194819D02*
X213342619Y-132147200D01*
X213342619Y-132147200D02*
X213295000Y-132051961D01*
X213295000Y-132051961D02*
X213295000Y-131671009D01*
X213295000Y-131671009D02*
X213342619Y-131575771D01*
X213342619Y-131575771D02*
X213437857Y-131528152D01*
X213437857Y-131528152D02*
X213628333Y-131528152D01*
X213628333Y-131528152D02*
X213723571Y-131575771D01*
X213723571Y-131575771D02*
X213771190Y-131671009D01*
X213771190Y-131671009D02*
X213771190Y-131766247D01*
X213771190Y-131766247D02*
X213295000Y-131861485D01*
X214152143Y-131290057D02*
X214199762Y-131242438D01*
X214199762Y-131242438D02*
X214295000Y-131194819D01*
X214295000Y-131194819D02*
X214533095Y-131194819D01*
X214533095Y-131194819D02*
X214628333Y-131242438D01*
X214628333Y-131242438D02*
X214675952Y-131290057D01*
X214675952Y-131290057D02*
X214723571Y-131385295D01*
X214723571Y-131385295D02*
X214723571Y-131480533D01*
X214723571Y-131480533D02*
X214675952Y-131623390D01*
X214675952Y-131623390D02*
X214104524Y-132194819D01*
X214104524Y-132194819D02*
X214723571Y-132194819D01*
X209433333Y-145604819D02*
X209100000Y-145128628D01*
X208861905Y-145604819D02*
X208861905Y-144604819D01*
X208861905Y-144604819D02*
X209242857Y-144604819D01*
X209242857Y-144604819D02*
X209338095Y-144652438D01*
X209338095Y-144652438D02*
X209385714Y-144700057D01*
X209385714Y-144700057D02*
X209433333Y-144795295D01*
X209433333Y-144795295D02*
X209433333Y-144938152D01*
X209433333Y-144938152D02*
X209385714Y-145033390D01*
X209385714Y-145033390D02*
X209338095Y-145081009D01*
X209338095Y-145081009D02*
X209242857Y-145128628D01*
X209242857Y-145128628D02*
X208861905Y-145128628D01*
X209909524Y-145604819D02*
X210100000Y-145604819D01*
X210100000Y-145604819D02*
X210195238Y-145557200D01*
X210195238Y-145557200D02*
X210242857Y-145509580D01*
X210242857Y-145509580D02*
X210338095Y-145366723D01*
X210338095Y-145366723D02*
X210385714Y-145176247D01*
X210385714Y-145176247D02*
X210385714Y-144795295D01*
X210385714Y-144795295D02*
X210338095Y-144700057D01*
X210338095Y-144700057D02*
X210290476Y-144652438D01*
X210290476Y-144652438D02*
X210195238Y-144604819D01*
X210195238Y-144604819D02*
X210004762Y-144604819D01*
X210004762Y-144604819D02*
X209909524Y-144652438D01*
X209909524Y-144652438D02*
X209861905Y-144700057D01*
X209861905Y-144700057D02*
X209814286Y-144795295D01*
X209814286Y-144795295D02*
X209814286Y-145033390D01*
X209814286Y-145033390D02*
X209861905Y-145128628D01*
X209861905Y-145128628D02*
X209909524Y-145176247D01*
X209909524Y-145176247D02*
X210004762Y-145223866D01*
X210004762Y-145223866D02*
X210195238Y-145223866D01*
X210195238Y-145223866D02*
X210290476Y-145176247D01*
X210290476Y-145176247D02*
X210338095Y-145128628D01*
X210338095Y-145128628D02*
X210385714Y-145033390D01*
X225708095Y-131102819D02*
X225708095Y-131912342D01*
X225708095Y-131912342D02*
X225755714Y-132007580D01*
X225755714Y-132007580D02*
X225803333Y-132055200D01*
X225803333Y-132055200D02*
X225898571Y-132102819D01*
X225898571Y-132102819D02*
X226089047Y-132102819D01*
X226089047Y-132102819D02*
X226184285Y-132055200D01*
X226184285Y-132055200D02*
X226231904Y-132007580D01*
X226231904Y-132007580D02*
X226279523Y-131912342D01*
X226279523Y-131912342D02*
X226279523Y-131102819D01*
X227279523Y-132102819D02*
X226708095Y-132102819D01*
X226993809Y-132102819D02*
X226993809Y-131102819D01*
X226993809Y-131102819D02*
X226898571Y-131245676D01*
X226898571Y-131245676D02*
X226803333Y-131340914D01*
X226803333Y-131340914D02*
X226708095Y-131388533D01*
X200888095Y-147406819D02*
X201459523Y-147406819D01*
X201173809Y-148406819D02*
X201173809Y-147406819D01*
X201792857Y-148406819D02*
X201792857Y-147406819D01*
X201792857Y-147406819D02*
X202173809Y-147406819D01*
X202173809Y-147406819D02*
X202269047Y-147454438D01*
X202269047Y-147454438D02*
X202316666Y-147502057D01*
X202316666Y-147502057D02*
X202364285Y-147597295D01*
X202364285Y-147597295D02*
X202364285Y-147740152D01*
X202364285Y-147740152D02*
X202316666Y-147835390D01*
X202316666Y-147835390D02*
X202269047Y-147883009D01*
X202269047Y-147883009D02*
X202173809Y-147930628D01*
X202173809Y-147930628D02*
X201792857Y-147930628D01*
X203316666Y-148406819D02*
X202745238Y-148406819D01*
X203030952Y-148406819D02*
X203030952Y-147406819D01*
X203030952Y-147406819D02*
X202935714Y-147549676D01*
X202935714Y-147549676D02*
X202840476Y-147644914D01*
X202840476Y-147644914D02*
X202745238Y-147692533D01*
X223354819Y-138406094D02*
X222354819Y-138406094D01*
X222354819Y-138406094D02*
X222354819Y-138167999D01*
X222354819Y-138167999D02*
X222402438Y-138025142D01*
X222402438Y-138025142D02*
X222497676Y-137929904D01*
X222497676Y-137929904D02*
X222592914Y-137882285D01*
X222592914Y-137882285D02*
X222783390Y-137834666D01*
X222783390Y-137834666D02*
X222926247Y-137834666D01*
X222926247Y-137834666D02*
X223116723Y-137882285D01*
X223116723Y-137882285D02*
X223211961Y-137929904D01*
X223211961Y-137929904D02*
X223307200Y-138025142D01*
X223307200Y-138025142D02*
X223354819Y-138167999D01*
X223354819Y-138167999D02*
X223354819Y-138406094D01*
X223354819Y-136882285D02*
X223354819Y-137453713D01*
X223354819Y-137167999D02*
X222354819Y-137167999D01*
X222354819Y-137167999D02*
X222497676Y-137263237D01*
X222497676Y-137263237D02*
X222592914Y-137358475D01*
X222592914Y-137358475D02*
X222640533Y-137453713D01*
D11*
%TO.C,F2*%
X223490000Y-144790415D02*
X223490000Y-147562919D01*
X226910000Y-144790415D02*
X226910000Y-147562919D01*
%TO.C,J1*%
X209270000Y-160250000D02*
X209270000Y-161300000D01*
X219815000Y-157080000D02*
X211015000Y-157080000D01*
X219815000Y-157080000D02*
X219815000Y-156325000D01*
X221560000Y-160250000D02*
X221560000Y-161300000D01*
%TO.C,U3*%
X214790000Y-151154000D02*
X214790000Y-151944000D01*
X217610000Y-151154000D02*
X217610000Y-152154000D01*
X214790000Y-152554000D02*
X214510000Y-152274000D01*
X214790000Y-152274000D01*
X214790000Y-152554000D01*
G36*
X214790000Y-152554000D02*
G01*
X214510000Y-152274000D01*
X214790000Y-152274000D01*
X214790000Y-152554000D01*
G37*
%TO.C,C2*%
X204418748Y-135971000D02*
X204941252Y-135971000D01*
X204418748Y-137441000D02*
X204941252Y-137441000D01*
%TO.C,U1A1*%
X212590000Y-143948000D02*
X213315000Y-143948000D01*
X212590000Y-144673000D02*
X212590000Y-143948000D01*
X212590000Y-148443000D02*
X212590000Y-148868000D01*
X213315000Y-149168000D02*
X212830000Y-149168000D01*
X217810000Y-143948000D02*
X217085000Y-143948000D01*
X217810000Y-144673000D02*
X217810000Y-143948000D01*
X217810000Y-148443000D02*
X217810000Y-149168000D01*
X217810000Y-149168000D02*
X217085000Y-149168000D01*
X212590000Y-149168000D02*
X212260000Y-149408000D01*
X212260000Y-148928000D01*
X212590000Y-149168000D01*
G36*
X212590000Y-149168000D02*
G01*
X212260000Y-149408000D01*
X212260000Y-148928000D01*
X212590000Y-149168000D01*
G37*
%TO.C,C4*%
X225008748Y-153189000D02*
X225531252Y-153189000D01*
X225008748Y-154659000D02*
X225531252Y-154659000D01*
%TO.C,C3*%
X225008748Y-150385333D02*
X225531252Y-150385333D01*
X225008748Y-151855333D02*
X225531252Y-151855333D01*
%TO.C,C1*%
X204418748Y-131907000D02*
X204941252Y-131907000D01*
X204418748Y-133377000D02*
X204941252Y-133377000D01*
%TO.C,R8*%
X220627064Y-142765000D02*
X220172936Y-142765000D01*
X220627064Y-144235000D02*
X220172936Y-144235000D01*
%TO.C,U2*%
X206070000Y-91070000D02*
X207400000Y-91070000D01*
X206070000Y-92400000D02*
X206070000Y-91070000D01*
X208670000Y-91070000D02*
X226510000Y-91070000D01*
X208670000Y-93730000D02*
X208670000Y-91070000D01*
X208670000Y-93730000D02*
X226510000Y-93730000D01*
X226510000Y-93730000D02*
X226510000Y-91070000D01*
%TO.C,Validation1*%
X216335000Y-134155000D02*
X216335000Y-137245000D01*
X216335000Y-134155170D02*
G75*
G02*
X221885000Y-135699952I2560000J-1544830D01*
G01*
X221885000Y-135700048D02*
G75*
G02*
X216335000Y-137244830I-2990000J48D01*
G01*
X221395000Y-135700000D02*
G75*
G02*
X216395000Y-135700000I-2500000J0D01*
G01*
X216395000Y-135700000D02*
G75*
G02*
X221395000Y-135700000I2500000J0D01*
G01*
%TO.C,TP4*%
X200450000Y-155650000D02*
X203850000Y-155650000D01*
X200450000Y-159050000D02*
X200450000Y-155650000D01*
X203850000Y-155650000D02*
X203850000Y-159050000D01*
X203850000Y-159050000D02*
X200450000Y-159050000D01*
%TO.C,TP2*%
X200450000Y-141650000D02*
X203850000Y-141650000D01*
X200450000Y-145050000D02*
X200450000Y-141650000D01*
X203850000Y-141650000D02*
X203850000Y-145050000D01*
X203850000Y-145050000D02*
X200450000Y-145050000D01*
%TO.C,Marche2*%
X209235000Y-134155000D02*
X209235000Y-137245000D01*
X209235000Y-134155170D02*
G75*
G02*
X214785000Y-135699952I2560000J-1544830D01*
G01*
X214785000Y-135700048D02*
G75*
G02*
X209235000Y-137244830I-2990000J48D01*
G01*
X214295000Y-135700000D02*
G75*
G02*
X209295000Y-135700000I-2500000J0D01*
G01*
X209295000Y-135700000D02*
G75*
G02*
X214295000Y-135700000I2500000J0D01*
G01*
%TO.C,R9*%
X209827064Y-142765000D02*
X209372936Y-142765000D01*
X209827064Y-144235000D02*
X209372936Y-144235000D01*
%TO.C,U1*%
X202970000Y-123868000D02*
X202970000Y-98438000D01*
X202970000Y-123868000D02*
X205510000Y-123868000D01*
X205510000Y-123868000D02*
X205510000Y-130768000D01*
X205510000Y-130768000D02*
X228830000Y-130768000D01*
X226710000Y-96308000D02*
X205100000Y-96308000D01*
X228830000Y-130768000D02*
X228830000Y-98438000D01*
X202970000Y-98438000D02*
G75*
G02*
X205100000Y-96308000I2130002J-2D01*
G01*
X226700000Y-96308000D02*
G75*
G02*
X228830000Y-98438000I0J-2130000D01*
G01*
D10*
X202565000Y-104648000D02*
X201930000Y-105283000D01*
X201930000Y-104013000D01*
X202565000Y-104648000D01*
G36*
X202565000Y-104648000D02*
G01*
X201930000Y-105283000D01*
X201930000Y-104013000D01*
X202565000Y-104648000D01*
G37*
D11*
%TO.C,TP1*%
X200450000Y-148650000D02*
X203850000Y-148650000D01*
X200450000Y-152050000D02*
X200450000Y-148650000D01*
X203850000Y-148650000D02*
X203850000Y-152050000D01*
X203850000Y-152050000D02*
X200450000Y-152050000D01*
%TO.C,D1*%
X223750000Y-142178000D02*
X223750000Y-135168000D01*
X223750000Y-142178000D02*
X227050000Y-142178000D01*
X227050000Y-142178000D02*
X227050000Y-135168000D01*
%TD*%
M02*
