%TF.GenerationSoftware,KiCad,Pcbnew,9.0.0*%
%TF.CreationDate,2025-12-11T11:24:11+01:00*%
%TF.ProjectId,rfidReader,72666964-5265-4616-9465-722e6b696361,rev?*%
%TF.SameCoordinates,Original*%
%TF.FileFunction,Copper,L2,Bot*%
%TF.FilePolarity,Positive*%
%FSLAX46Y46*%
G04 Gerber Fmt 4.6, Leading zero omitted, Abs format (unit mm)*
G04 Created by KiCad (PCBNEW 9.0.0) date 2025-12-11 11:24:11*
%MOMM*%
%LPD*%
G01*
G04 APERTURE LIST*
%TA.AperFunction,HeatsinkPad*%
%ADD10O,1.900000X3.500000*%
%TD*%
%TA.AperFunction,ComponentPad*%
%ADD11R,1.700000X1.700000*%
%TD*%
%TA.AperFunction,ComponentPad*%
%ADD12O,1.700000X1.700000*%
%TD*%
%TA.AperFunction,ComponentPad*%
%ADD13R,1.800000X1.800000*%
%TD*%
%TA.AperFunction,ComponentPad*%
%ADD14C,1.800000*%
%TD*%
%TA.AperFunction,ComponentPad*%
%ADD15R,2.000000X2.000000*%
%TD*%
%TA.AperFunction,ComponentPad*%
%ADD16O,2.000000X1.600000*%
%TD*%
%TA.AperFunction,ViaPad*%
%ADD17C,0.600000*%
%TD*%
%TA.AperFunction,Conductor*%
%ADD18C,0.200000*%
%TD*%
%TA.AperFunction,Conductor*%
%ADD19C,0.500000*%
%TD*%
G04 APERTURE END LIST*
D10*
%TO.P,J1,5,Shield*%
%TO.N,GND*%
X221115000Y-158200000D03*
X209715000Y-158200000D03*
%TD*%
D11*
%TO.P,U2,1,SDA*%
%TO.N,Net-(U1-SDA{slash}D2)*%
X207400000Y-92400000D03*
D12*
%TO.P,U2,2,SCK*%
%TO.N,Net-(U1-SCK{slash}D5)*%
X209940000Y-92400000D03*
%TO.P,U2,3,MOSI*%
%TO.N,Net-(U1-MOSI{slash}D7)*%
X212480000Y-92400000D03*
%TO.P,U2,4,MISO*%
%TO.N,Net-(U1-MISO{slash}D6)*%
X215020000Y-92400000D03*
%TO.P,U2,5,IRQ*%
%TO.N,unconnected-(U2-IRQ-Pad5)*%
X217560000Y-92400000D03*
%TO.P,U2,6,GND*%
%TO.N,GND*%
X220100000Y-92400000D03*
%TO.P,U2,7,RST*%
%TO.N,Net-(U1-SCL{slash}D1)*%
X222640000Y-92400000D03*
%TO.P,U2,8,3.3V*%
%TO.N,VDD*%
X225180000Y-92400000D03*
%TD*%
D13*
%TO.P,Validation1,1,K*%
%TO.N,GND*%
X217625000Y-135700000D03*
D14*
%TO.P,Validation1,2,A*%
%TO.N,Net-(Validation1-A)*%
X220165000Y-135700000D03*
%TD*%
D13*
%TO.P,Marche2,1,K*%
%TO.N,Net-(Marche2-K)*%
X210525000Y-135700000D03*
D14*
%TO.P,Marche2,2,A*%
%TO.N,Net-(Marche2-A)*%
X213065000Y-135700000D03*
%TD*%
D15*
%TO.P,U1,1,~{RST}*%
%TO.N,unconnected-(U1-~{RST}-Pad1)*%
X204470000Y-104648000D03*
D16*
%TO.P,U1,2,A0*%
%TO.N,unconnected-(U1-A0-Pad2)*%
X204470000Y-107188000D03*
%TO.P,U1,3,D0*%
%TO.N,unconnected-(U1-D0-Pad3)*%
X204470000Y-109728000D03*
%TO.P,U1,4,SCK/D5*%
%TO.N,Net-(U1-SCK{slash}D5)*%
X204470000Y-112268000D03*
%TO.P,U1,5,MISO/D6*%
%TO.N,Net-(U1-MISO{slash}D6)*%
X204470000Y-114808000D03*
%TO.P,U1,6,MOSI/D7*%
%TO.N,Net-(U1-MOSI{slash}D7)*%
X204470000Y-117348000D03*
%TO.P,U1,7,CS/D8*%
%TO.N,unconnected-(U1-CS{slash}D8-Pad7)*%
X204470000Y-119888000D03*
%TO.P,U1,8,3V3*%
%TO.N,VDD*%
X204470000Y-122428000D03*
%TO.P,U1,9,5V*%
%TO.N,unconnected-(U1-5V-Pad9)*%
X227330000Y-122428000D03*
%TO.P,U1,10,GND*%
%TO.N,GND*%
X227330000Y-119888000D03*
%TO.P,U1,11,D4*%
%TO.N,/D4*%
X227330000Y-117348000D03*
%TO.P,U1,12,D3*%
%TO.N,unconnected-(U1-D3-Pad12)*%
X227330000Y-114808000D03*
%TO.P,U1,13,SDA/D2*%
%TO.N,Net-(U1-SDA{slash}D2)*%
X227330000Y-112268000D03*
%TO.P,U1,14,SCL/D1*%
%TO.N,Net-(U1-SCL{slash}D1)*%
X227330000Y-109728000D03*
%TO.P,U1,15,RX*%
%TO.N,unconnected-(U1-RX-Pad15)*%
X227330000Y-107188000D03*
%TO.P,U1,16,TX*%
%TO.N,/RX*%
X227330000Y-104648000D03*
%TD*%
D17*
%TO.N,GND*%
X218000000Y-150650000D03*
X227500000Y-133000000D03*
X217400000Y-144350000D03*
X212250000Y-152600000D03*
X207250000Y-136850000D03*
%TO.N,VBUS*%
X222300000Y-145000000D03*
%TO.N,Net-(Marche2-A)*%
X218500000Y-148800000D03*
%TO.N,VBUS*%
X220100000Y-149100000D03*
%TO.N,/RX*%
X215100000Y-138400000D03*
%TO.N,Net-(Marche2-A)*%
X216900000Y-141900000D03*
%TO.N,Net-(U1-MOSI{slash}D7)*%
X206200000Y-94400000D03*
X201500000Y-95600000D03*
%TO.N,Net-(U1-SDA{slash}D2)*%
X230600000Y-94450000D03*
%TO.N,/RX*%
X207400000Y-144300000D03*
X209200000Y-145300000D03*
%TO.N,VBUS*%
X224232500Y-151120333D03*
%TO.N,/RX*%
X213800000Y-140000000D03*
%TD*%
D18*
%TO.N,VBUS*%
X220100000Y-149100000D02*
X222600000Y-151600000D01*
D19*
X221100000Y-146200000D02*
X221100000Y-148000000D01*
X222300000Y-145000000D02*
X221100000Y-146200000D01*
X222700000Y-149587833D02*
X223006084Y-149893916D01*
D18*
X223452833Y-151900000D02*
X224232500Y-151120333D01*
D19*
X222993916Y-149893916D02*
X223006084Y-149893916D01*
D18*
X222600000Y-151900000D02*
X223452833Y-151900000D01*
X222600000Y-151600000D02*
X222600000Y-151900000D01*
D19*
X221100000Y-148000000D02*
X222993916Y-149893916D01*
X223006084Y-149893916D02*
X224232500Y-151120333D01*
D18*
%TO.N,Net-(Marche2-A)*%
X218500000Y-143500000D02*
X216900000Y-141900000D01*
X216800000Y-141800000D02*
X216900000Y-141900000D01*
X218500000Y-148800000D02*
X218500000Y-143500000D01*
%TO.N,/RX*%
X208400000Y-145300000D02*
X207400000Y-144300000D01*
X209200000Y-145300000D02*
X208400000Y-145300000D01*
X215100000Y-138700000D02*
X215100000Y-138400000D01*
X213800000Y-140000000D02*
X215100000Y-138700000D01*
%TO.N,Net-(U1-MOSI{slash}D7)*%
X202800000Y-94300000D02*
X206100000Y-94300000D01*
X201500000Y-95600000D02*
X202800000Y-94300000D01*
X206100000Y-94300000D02*
X206200000Y-94400000D01*
%TO.N,Net-(U1-SDA{slash}D2)*%
X230600000Y-94450000D02*
X230150000Y-94000000D01*
X230150000Y-94000000D02*
X209000000Y-94000000D01*
X209000000Y-94000000D02*
X207400000Y-92400000D01*
%TD*%
%TA.AperFunction,Conductor*%
%TO.N,GND*%
G36*
X231942539Y-89920185D02*
G01*
X231988294Y-89972989D01*
X231999500Y-90024500D01*
X231999500Y-160275500D01*
X231979815Y-160342539D01*
X231927011Y-160388294D01*
X231875500Y-160399500D01*
X222037274Y-160399500D01*
X221970235Y-160379815D01*
X221924480Y-160327011D01*
X221914536Y-160257853D01*
X221943561Y-160194297D01*
X221964388Y-160175182D01*
X222059613Y-160105995D01*
X222059614Y-160105995D01*
X222220995Y-159944614D01*
X222355150Y-159759966D01*
X222458769Y-159556604D01*
X222529295Y-159339544D01*
X222565000Y-159114116D01*
X222565000Y-158450000D01*
X221565000Y-158450000D01*
X221565000Y-157950000D01*
X222565000Y-157950000D01*
X222565000Y-157285883D01*
X222529295Y-157060455D01*
X222458769Y-156843395D01*
X222355150Y-156640033D01*
X222220995Y-156455385D01*
X222059614Y-156294004D01*
X221874966Y-156159849D01*
X221671602Y-156056229D01*
X221454541Y-155985703D01*
X221365000Y-155971521D01*
X221365000Y-157024722D01*
X221288694Y-156980667D01*
X221174244Y-156950000D01*
X221055756Y-156950000D01*
X220941306Y-156980667D01*
X220865000Y-157024722D01*
X220865000Y-155971521D01*
X220864999Y-155971521D01*
X220775458Y-155985703D01*
X220558397Y-156056229D01*
X220355033Y-156159849D01*
X220170385Y-156294004D01*
X220009004Y-156455385D01*
X219874849Y-156640033D01*
X219771230Y-156843395D01*
X219700704Y-157060455D01*
X219665000Y-157285883D01*
X219665000Y-157950000D01*
X220665000Y-157950000D01*
X220665000Y-158450000D01*
X219665000Y-158450000D01*
X219665000Y-159114116D01*
X219700704Y-159339544D01*
X219771230Y-159556604D01*
X219874849Y-159759966D01*
X220009004Y-159944614D01*
X220170385Y-160105995D01*
X220265612Y-160175182D01*
X220308277Y-160230512D01*
X220314256Y-160300126D01*
X220281650Y-160361920D01*
X220220811Y-160396278D01*
X220192726Y-160399500D01*
X210637274Y-160399500D01*
X210570235Y-160379815D01*
X210524480Y-160327011D01*
X210514536Y-160257853D01*
X210543561Y-160194297D01*
X210564388Y-160175182D01*
X210659613Y-160105995D01*
X210659614Y-160105995D01*
X210820995Y-159944614D01*
X210955150Y-159759966D01*
X211058769Y-159556604D01*
X211129295Y-159339544D01*
X211165000Y-159114116D01*
X211165000Y-158450000D01*
X210165000Y-158450000D01*
X210165000Y-158121153D01*
X212314500Y-158121153D01*
X212314500Y-158278846D01*
X212345261Y-158433489D01*
X212345264Y-158433501D01*
X212405602Y-158579172D01*
X212405609Y-158579185D01*
X212493210Y-158710288D01*
X212493213Y-158710292D01*
X212604707Y-158821786D01*
X212604711Y-158821789D01*
X212735814Y-158909390D01*
X212735827Y-158909397D01*
X212881498Y-158969735D01*
X212881503Y-158969737D01*
X213036153Y-159000499D01*
X213036156Y-159000500D01*
X213036158Y-159000500D01*
X213193844Y-159000500D01*
X213193845Y-159000499D01*
X213348497Y-158969737D01*
X213494179Y-158909394D01*
X213625289Y-158821789D01*
X213736789Y-158710289D01*
X213824394Y-158579179D01*
X213884737Y-158433497D01*
X213915500Y-158278842D01*
X213915500Y-158121158D01*
X213915500Y-158121155D01*
X213915499Y-158121153D01*
X216914500Y-158121153D01*
X216914500Y-158278846D01*
X216945261Y-158433489D01*
X216945264Y-158433501D01*
X217005602Y-158579172D01*
X217005609Y-158579185D01*
X217093210Y-158710288D01*
X217093213Y-158710292D01*
X217204707Y-158821786D01*
X217204711Y-158821789D01*
X217335814Y-158909390D01*
X217335827Y-158909397D01*
X217481498Y-158969735D01*
X217481503Y-158969737D01*
X217636153Y-159000499D01*
X217636156Y-159000500D01*
X217636158Y-159000500D01*
X217793844Y-159000500D01*
X217793845Y-159000499D01*
X217948497Y-158969737D01*
X218094179Y-158909394D01*
X218225289Y-158821789D01*
X218336789Y-158710289D01*
X218424394Y-158579179D01*
X218484737Y-158433497D01*
X218515500Y-158278842D01*
X218515500Y-158121158D01*
X218515500Y-158121155D01*
X218515499Y-158121153D01*
X218484738Y-157966510D01*
X218484737Y-157966503D01*
X218477901Y-157950000D01*
X218424397Y-157820827D01*
X218424390Y-157820814D01*
X218336789Y-157689711D01*
X218336786Y-157689707D01*
X218225292Y-157578213D01*
X218225288Y-157578210D01*
X218094185Y-157490609D01*
X218094172Y-157490602D01*
X217948501Y-157430264D01*
X217948491Y-157430261D01*
X217809570Y-157402628D01*
X217809569Y-157402627D01*
X217793845Y-157399500D01*
X217793842Y-157399500D01*
X217636158Y-157399500D01*
X217636155Y-157399500D01*
X217481510Y-157430261D01*
X217481498Y-157430264D01*
X217335827Y-157490602D01*
X217335814Y-157490609D01*
X217204711Y-157578210D01*
X217204707Y-157578213D01*
X217093213Y-157689707D01*
X217093210Y-157689711D01*
X217005609Y-157820814D01*
X217005602Y-157820827D01*
X216945264Y-157966498D01*
X216945261Y-157966510D01*
X216914500Y-158121153D01*
X213915499Y-158121153D01*
X213884738Y-157966510D01*
X213884737Y-157966503D01*
X213877901Y-157950000D01*
X213824397Y-157820827D01*
X213824390Y-157820814D01*
X213736789Y-157689711D01*
X213736786Y-157689707D01*
X213625292Y-157578213D01*
X213625288Y-157578210D01*
X213494185Y-157490609D01*
X213494172Y-157490602D01*
X213348501Y-157430264D01*
X213348489Y-157430261D01*
X213193845Y-157399500D01*
X213193842Y-157399500D01*
X213036158Y-157399500D01*
X213036155Y-157399500D01*
X212881510Y-157430261D01*
X212881498Y-157430264D01*
X212735827Y-157490602D01*
X212735814Y-157490609D01*
X212604711Y-157578210D01*
X212604707Y-157578213D01*
X212493213Y-157689707D01*
X212493210Y-157689711D01*
X212405609Y-157820814D01*
X212405602Y-157820827D01*
X212345264Y-157966498D01*
X212345261Y-157966510D01*
X212314500Y-158121153D01*
X210165000Y-158121153D01*
X210165000Y-157950000D01*
X211165000Y-157950000D01*
X211165000Y-157285883D01*
X211129295Y-157060455D01*
X211058769Y-156843395D01*
X210955150Y-156640033D01*
X210820995Y-156455385D01*
X210659614Y-156294004D01*
X210474966Y-156159849D01*
X210271602Y-156056229D01*
X210054541Y-155985703D01*
X209965000Y-155971521D01*
X209965000Y-157024722D01*
X209888694Y-156980667D01*
X209774244Y-156950000D01*
X209655756Y-156950000D01*
X209541306Y-156980667D01*
X209465000Y-157024722D01*
X209465000Y-155971521D01*
X209464999Y-155971521D01*
X209375458Y-155985703D01*
X209158397Y-156056229D01*
X208955033Y-156159849D01*
X208770385Y-156294004D01*
X208609004Y-156455385D01*
X208474849Y-156640033D01*
X208371230Y-156843395D01*
X208300704Y-157060455D01*
X208265000Y-157285883D01*
X208265000Y-157950000D01*
X209265000Y-157950000D01*
X209265000Y-158450000D01*
X208265000Y-158450000D01*
X208265000Y-159114116D01*
X208300704Y-159339544D01*
X208371230Y-159556604D01*
X208474849Y-159759966D01*
X208609004Y-159944614D01*
X208770385Y-160105995D01*
X208865612Y-160175182D01*
X208908277Y-160230512D01*
X208914256Y-160300126D01*
X208881650Y-160361920D01*
X208820811Y-160396278D01*
X208792726Y-160399500D01*
X199874500Y-160399500D01*
X199807461Y-160379815D01*
X199761706Y-160327011D01*
X199750500Y-160275500D01*
X199750500Y-144221153D01*
X206599500Y-144221153D01*
X206599500Y-144378846D01*
X206630261Y-144533489D01*
X206630264Y-144533501D01*
X206690602Y-144679172D01*
X206690609Y-144679185D01*
X206778210Y-144810288D01*
X206778213Y-144810292D01*
X206889707Y-144921786D01*
X206889711Y-144921789D01*
X207020814Y-145009390D01*
X207020827Y-145009397D01*
X207158683Y-145066498D01*
X207166503Y-145069737D01*
X207212277Y-145078842D01*
X207321849Y-145100638D01*
X207383760Y-145133023D01*
X207385336Y-145134571D01*
X208031284Y-145780520D01*
X208031286Y-145780521D01*
X208031290Y-145780524D01*
X208142110Y-145844505D01*
X208168216Y-145859577D01*
X208320943Y-145900501D01*
X208320945Y-145900501D01*
X208486654Y-145900501D01*
X208486670Y-145900500D01*
X208620234Y-145900500D01*
X208687273Y-145920185D01*
X208689125Y-145921398D01*
X208820814Y-146009390D01*
X208820827Y-146009397D01*
X208966498Y-146069735D01*
X208966503Y-146069737D01*
X209121153Y-146100499D01*
X209121156Y-146100500D01*
X209121158Y-146100500D01*
X209278844Y-146100500D01*
X209278845Y-146100499D01*
X209433497Y-146069737D01*
X209579179Y-146009394D01*
X209710289Y-145921789D01*
X209821789Y-145810289D01*
X209909394Y-145679179D01*
X209969737Y-145533497D01*
X210000500Y-145378842D01*
X210000500Y-145221158D01*
X210000500Y-145221155D01*
X210000499Y-145221153D01*
X209972192Y-145078846D01*
X209969737Y-145066503D01*
X209909534Y-144921158D01*
X209909397Y-144920827D01*
X209909390Y-144920814D01*
X209821789Y-144789711D01*
X209821786Y-144789707D01*
X209710292Y-144678213D01*
X209710288Y-144678210D01*
X209579185Y-144590609D01*
X209579172Y-144590602D01*
X209433501Y-144530264D01*
X209433489Y-144530261D01*
X209278845Y-144499500D01*
X209278842Y-144499500D01*
X209121158Y-144499500D01*
X209121155Y-144499500D01*
X208966510Y-144530261D01*
X208966498Y-144530264D01*
X208820827Y-144590602D01*
X208820814Y-144590609D01*
X208737000Y-144646613D01*
X208670323Y-144667491D01*
X208602942Y-144649007D01*
X208580428Y-144631192D01*
X208234573Y-144285337D01*
X208201088Y-144224014D01*
X208200637Y-144221847D01*
X208169738Y-144066510D01*
X208169737Y-144066503D01*
X208169735Y-144066498D01*
X208109397Y-143920827D01*
X208109390Y-143920814D01*
X208021789Y-143789711D01*
X208021786Y-143789707D01*
X207910292Y-143678213D01*
X207910288Y-143678210D01*
X207779185Y-143590609D01*
X207779172Y-143590602D01*
X207633501Y-143530264D01*
X207633489Y-143530261D01*
X207478845Y-143499500D01*
X207478842Y-143499500D01*
X207321158Y-143499500D01*
X207321155Y-143499500D01*
X207166510Y-143530261D01*
X207166498Y-143530264D01*
X207020827Y-143590602D01*
X207020814Y-143590609D01*
X206889711Y-143678210D01*
X206889707Y-143678213D01*
X206778213Y-143789707D01*
X206778210Y-143789711D01*
X206690609Y-143920814D01*
X206690602Y-143920827D01*
X206630264Y-144066498D01*
X206630261Y-144066510D01*
X206599500Y-144221153D01*
X199750500Y-144221153D01*
X199750500Y-141821153D01*
X216099500Y-141821153D01*
X216099500Y-141978846D01*
X216130261Y-142133489D01*
X216130264Y-142133501D01*
X216190602Y-142279172D01*
X216190609Y-142279185D01*
X216278210Y-142410288D01*
X216278213Y-142410292D01*
X216389707Y-142521786D01*
X216389711Y-142521789D01*
X216520814Y-142609390D01*
X216520827Y-142609397D01*
X216666498Y-142669735D01*
X216666503Y-142669737D01*
X216731147Y-142682595D01*
X216821849Y-142700638D01*
X216883760Y-142733023D01*
X216885339Y-142734574D01*
X217863181Y-143712416D01*
X217896666Y-143773739D01*
X217899500Y-143800097D01*
X217899500Y-148220234D01*
X217879815Y-148287273D01*
X217878602Y-148289125D01*
X217790609Y-148420814D01*
X217790602Y-148420827D01*
X217730264Y-148566498D01*
X217730261Y-148566510D01*
X217699500Y-148721153D01*
X217699500Y-148878846D01*
X217730261Y-149033489D01*
X217730264Y-149033501D01*
X217790602Y-149179172D01*
X217790609Y-149179185D01*
X217878210Y-149310288D01*
X217878213Y-149310292D01*
X217989707Y-149421786D01*
X217989711Y-149421789D01*
X218120814Y-149509390D01*
X218120827Y-149509397D01*
X218266498Y-149569735D01*
X218266503Y-149569737D01*
X218421153Y-149600499D01*
X218421156Y-149600500D01*
X218421158Y-149600500D01*
X218578844Y-149600500D01*
X218578845Y-149600499D01*
X218733497Y-149569737D01*
X218879179Y-149509394D01*
X219010289Y-149421789D01*
X219121789Y-149310289D01*
X219121795Y-149310279D01*
X219122696Y-149309183D01*
X219123323Y-149308755D01*
X219126097Y-149305982D01*
X219126622Y-149306507D01*
X219180439Y-149269844D01*
X219250283Y-149267968D01*
X219310054Y-149304150D01*
X219333117Y-149340388D01*
X219390602Y-149479172D01*
X219390609Y-149479185D01*
X219478210Y-149610288D01*
X219478213Y-149610292D01*
X219589707Y-149721786D01*
X219589711Y-149721789D01*
X219720814Y-149809390D01*
X219720827Y-149809397D01*
X219866498Y-149869735D01*
X219866503Y-149869737D01*
X219931147Y-149882595D01*
X220021849Y-149900638D01*
X220083760Y-149933023D01*
X220085339Y-149934574D01*
X221963181Y-151812416D01*
X221996666Y-151873739D01*
X221999500Y-151900097D01*
X221999500Y-151979056D01*
X222040423Y-152131783D01*
X222040426Y-152131790D01*
X222119475Y-152268709D01*
X222119478Y-152268713D01*
X222119480Y-152268716D01*
X222231284Y-152380520D01*
X222231286Y-152380521D01*
X222231290Y-152380524D01*
X222368209Y-152459573D01*
X222368216Y-152459577D01*
X222520943Y-152500500D01*
X222679057Y-152500500D01*
X223366164Y-152500500D01*
X223366180Y-152500501D01*
X223373776Y-152500501D01*
X223531887Y-152500501D01*
X223531890Y-152500501D01*
X223684618Y-152459577D01*
X223734737Y-152430639D01*
X223821549Y-152380520D01*
X223933353Y-152268716D01*
X223933353Y-152268714D01*
X223943561Y-152258507D01*
X223943562Y-152258504D01*
X224247164Y-151954903D01*
X224308484Y-151921421D01*
X224310651Y-151920970D01*
X224311340Y-151920833D01*
X224311342Y-151920833D01*
X224465997Y-151890070D01*
X224611679Y-151829727D01*
X224742789Y-151742122D01*
X224854289Y-151630622D01*
X224941894Y-151499512D01*
X225002237Y-151353830D01*
X225033000Y-151199175D01*
X225033000Y-151041491D01*
X225033000Y-151041488D01*
X225032999Y-151041486D01*
X225002238Y-150886843D01*
X225002237Y-150886836D01*
X225002235Y-150886831D01*
X224941897Y-150741160D01*
X224941890Y-150741147D01*
X224854289Y-150610044D01*
X224854286Y-150610040D01*
X224742792Y-150498546D01*
X224742784Y-150498540D01*
X224611681Y-150410940D01*
X224611679Y-150410939D01*
X224588021Y-150401139D01*
X224547795Y-150374260D01*
X223178415Y-149004880D01*
X223151903Y-148987166D01*
X223133113Y-148971745D01*
X221886819Y-147725451D01*
X221853334Y-147664128D01*
X221850500Y-147637770D01*
X221850500Y-146562229D01*
X221870185Y-146495190D01*
X221886819Y-146474548D01*
X222235288Y-146126079D01*
X222615297Y-145746069D01*
X222655522Y-145719192D01*
X222679179Y-145709394D01*
X222810289Y-145621789D01*
X222921789Y-145510289D01*
X223009394Y-145379179D01*
X223069737Y-145233497D01*
X223100500Y-145078842D01*
X223100500Y-144921158D01*
X223100500Y-144921155D01*
X223100499Y-144921153D01*
X223078447Y-144810292D01*
X223069737Y-144766503D01*
X223033569Y-144679185D01*
X223009397Y-144620827D01*
X223009390Y-144620814D01*
X222921789Y-144489711D01*
X222921786Y-144489707D01*
X222810292Y-144378213D01*
X222810288Y-144378210D01*
X222679185Y-144290609D01*
X222679172Y-144290602D01*
X222533501Y-144230264D01*
X222533489Y-144230261D01*
X222378845Y-144199500D01*
X222378842Y-144199500D01*
X222221158Y-144199500D01*
X222221155Y-144199500D01*
X222066510Y-144230261D01*
X222066498Y-144230264D01*
X221920827Y-144290602D01*
X221920814Y-144290609D01*
X221789711Y-144378210D01*
X221789707Y-144378213D01*
X221678213Y-144489707D01*
X221678207Y-144489715D01*
X221590607Y-144620818D01*
X221590606Y-144620819D01*
X221580805Y-144644480D01*
X221553927Y-144684703D01*
X220517047Y-145721584D01*
X220517043Y-145721589D01*
X220484874Y-145769736D01*
X220484874Y-145769737D01*
X220434913Y-145844508D01*
X220378343Y-145981082D01*
X220378340Y-145981092D01*
X220349500Y-146126079D01*
X220349500Y-146126082D01*
X220349500Y-148073918D01*
X220349500Y-148073920D01*
X220349499Y-148073920D01*
X220367045Y-148162123D01*
X220360818Y-148231715D01*
X220317955Y-148286892D01*
X220252066Y-148310137D01*
X220221237Y-148307932D01*
X220178846Y-148299500D01*
X220178842Y-148299500D01*
X220021158Y-148299500D01*
X220021155Y-148299500D01*
X219866510Y-148330261D01*
X219866498Y-148330264D01*
X219720827Y-148390602D01*
X219720814Y-148390609D01*
X219589711Y-148478210D01*
X219589707Y-148478213D01*
X219478208Y-148589712D01*
X219477288Y-148590834D01*
X219476657Y-148591263D01*
X219473903Y-148594018D01*
X219473380Y-148593495D01*
X219419538Y-148630162D01*
X219349694Y-148632025D01*
X219289929Y-148595832D01*
X219266882Y-148559611D01*
X219209397Y-148420826D01*
X219209390Y-148420814D01*
X219121398Y-148289125D01*
X219100520Y-148222447D01*
X219100500Y-148220234D01*
X219100500Y-143589060D01*
X219100501Y-143589047D01*
X219100501Y-143420944D01*
X219059576Y-143268214D01*
X219059573Y-143268209D01*
X218980524Y-143131290D01*
X218980518Y-143131282D01*
X217734573Y-141885337D01*
X217701088Y-141824014D01*
X217700637Y-141821847D01*
X217669738Y-141666510D01*
X217669737Y-141666503D01*
X217669735Y-141666498D01*
X217609397Y-141520827D01*
X217609390Y-141520814D01*
X217521789Y-141389711D01*
X217521786Y-141389707D01*
X217410292Y-141278213D01*
X217410288Y-141278210D01*
X217279185Y-141190609D01*
X217279172Y-141190602D01*
X217133501Y-141130264D01*
X217133489Y-141130261D01*
X216978845Y-141099500D01*
X216978842Y-141099500D01*
X216821158Y-141099500D01*
X216821155Y-141099500D01*
X216666510Y-141130261D01*
X216666498Y-141130264D01*
X216520827Y-141190602D01*
X216520814Y-141190609D01*
X216389711Y-141278210D01*
X216389707Y-141278213D01*
X216278213Y-141389707D01*
X216278210Y-141389711D01*
X216190609Y-141520814D01*
X216190602Y-141520827D01*
X216130264Y-141666498D01*
X216130261Y-141666510D01*
X216099500Y-141821153D01*
X199750500Y-141821153D01*
X199750500Y-139921153D01*
X212999500Y-139921153D01*
X212999500Y-140078846D01*
X213030261Y-140233489D01*
X213030264Y-140233501D01*
X213090602Y-140379172D01*
X213090609Y-140379185D01*
X213178210Y-140510288D01*
X213178213Y-140510292D01*
X213289707Y-140621786D01*
X213289711Y-140621789D01*
X213420814Y-140709390D01*
X213420827Y-140709397D01*
X213566498Y-140769735D01*
X213566503Y-140769737D01*
X213721153Y-140800499D01*
X213721156Y-140800500D01*
X213721158Y-140800500D01*
X213878844Y-140800500D01*
X213878845Y-140800499D01*
X214033497Y-140769737D01*
X214179179Y-140709394D01*
X214310289Y-140621789D01*
X214421789Y-140510289D01*
X214509394Y-140379179D01*
X214569737Y-140233497D01*
X214589113Y-140136085D01*
X214600638Y-140078150D01*
X214633023Y-140016239D01*
X214634516Y-140014718D01*
X215580520Y-139068716D01*
X215595792Y-139042262D01*
X215615497Y-139016580D01*
X215721789Y-138910289D01*
X215809394Y-138779179D01*
X215869737Y-138633497D01*
X215900500Y-138478842D01*
X215900500Y-138321158D01*
X215900500Y-138321155D01*
X215900499Y-138321153D01*
X215869738Y-138166510D01*
X215869737Y-138166503D01*
X215869735Y-138166498D01*
X215809397Y-138020827D01*
X215809390Y-138020814D01*
X215721789Y-137889711D01*
X215721786Y-137889707D01*
X215610292Y-137778213D01*
X215610288Y-137778210D01*
X215479185Y-137690609D01*
X215479172Y-137690602D01*
X215333501Y-137630264D01*
X215333489Y-137630261D01*
X215178845Y-137599500D01*
X215178842Y-137599500D01*
X215021158Y-137599500D01*
X215021155Y-137599500D01*
X214866510Y-137630261D01*
X214866498Y-137630264D01*
X214720827Y-137690602D01*
X214720814Y-137690609D01*
X214589711Y-137778210D01*
X214589707Y-137778213D01*
X214478213Y-137889707D01*
X214478210Y-137889711D01*
X214390609Y-138020814D01*
X214390602Y-138020827D01*
X214330264Y-138166498D01*
X214330261Y-138166510D01*
X214299500Y-138321153D01*
X214299500Y-138321158D01*
X214299500Y-138478842D01*
X214299501Y-138478846D01*
X214315176Y-138557652D01*
X214308947Y-138627243D01*
X214281239Y-138669523D01*
X213785339Y-139165425D01*
X213724016Y-139198910D01*
X213721850Y-139199361D01*
X213566508Y-139230261D01*
X213566498Y-139230264D01*
X213420827Y-139290602D01*
X213420814Y-139290609D01*
X213289711Y-139378210D01*
X213289707Y-139378213D01*
X213178213Y-139489707D01*
X213178210Y-139489711D01*
X213090609Y-139620814D01*
X213090602Y-139620827D01*
X213030264Y-139766498D01*
X213030261Y-139766510D01*
X212999500Y-139921153D01*
X199750500Y-139921153D01*
X199750500Y-134752135D01*
X209124500Y-134752135D01*
X209124500Y-136647870D01*
X209124501Y-136647876D01*
X209130908Y-136707483D01*
X209181202Y-136842328D01*
X209181206Y-136842335D01*
X209267452Y-136957544D01*
X209267455Y-136957547D01*
X209382664Y-137043793D01*
X209382671Y-137043797D01*
X209517517Y-137094091D01*
X209517516Y-137094091D01*
X209524444Y-137094835D01*
X209577127Y-137100500D01*
X211472872Y-137100499D01*
X211532483Y-137094091D01*
X211667331Y-137043796D01*
X211782546Y-136957546D01*
X211868796Y-136842331D01*
X211868885Y-136842093D01*
X211898601Y-136762420D01*
X211940471Y-136706486D01*
X212005936Y-136682068D01*
X212074209Y-136696919D01*
X212102464Y-136718071D01*
X212152636Y-136768243D01*
X212152641Y-136768247D01*
X212254603Y-136842326D01*
X212330978Y-136897815D01*
X212459375Y-136963237D01*
X212527393Y-136997895D01*
X212527396Y-136997896D01*
X212632221Y-137031955D01*
X212737049Y-137066015D01*
X212954778Y-137100500D01*
X212954779Y-137100500D01*
X213175221Y-137100500D01*
X213175222Y-137100500D01*
X213392951Y-137066015D01*
X213602606Y-136997895D01*
X213799022Y-136897815D01*
X213977365Y-136768242D01*
X214133242Y-136612365D01*
X214262815Y-136434022D01*
X214362895Y-136237606D01*
X214431015Y-136027951D01*
X214465500Y-135810222D01*
X214465500Y-135589778D01*
X214431015Y-135372049D01*
X214396955Y-135267221D01*
X214362896Y-135162396D01*
X214362895Y-135162393D01*
X214262815Y-134965978D01*
X214158018Y-134821736D01*
X214158017Y-134821735D01*
X214133243Y-134787636D01*
X214097762Y-134752155D01*
X216225000Y-134752155D01*
X216225000Y-135450000D01*
X217249722Y-135450000D01*
X217205667Y-135526306D01*
X217175000Y-135640756D01*
X217175000Y-135759244D01*
X217205667Y-135873694D01*
X217249722Y-135950000D01*
X216225000Y-135950000D01*
X216225000Y-136647844D01*
X216231401Y-136707372D01*
X216231403Y-136707379D01*
X216281645Y-136842086D01*
X216281649Y-136842093D01*
X216367809Y-136957187D01*
X216367812Y-136957190D01*
X216482906Y-137043350D01*
X216482913Y-137043354D01*
X216617620Y-137093596D01*
X216617627Y-137093598D01*
X216677155Y-137099999D01*
X216677172Y-137100000D01*
X217375000Y-137100000D01*
X217375000Y-136075277D01*
X217451306Y-136119333D01*
X217565756Y-136150000D01*
X217684244Y-136150000D01*
X217798694Y-136119333D01*
X217875000Y-136075277D01*
X217875000Y-137100000D01*
X218572828Y-137100000D01*
X218572844Y-137099999D01*
X218632372Y-137093598D01*
X218632379Y-137093596D01*
X218767086Y-137043354D01*
X218767093Y-137043350D01*
X218882187Y-136957190D01*
X218882190Y-136957187D01*
X218968350Y-136842093D01*
X218968354Y-136842086D01*
X218998213Y-136762031D01*
X219040084Y-136706097D01*
X219105548Y-136681680D01*
X219173821Y-136696531D01*
X219202076Y-136717683D01*
X219252636Y-136768243D01*
X219252641Y-136768247D01*
X219354603Y-136842326D01*
X219430978Y-136897815D01*
X219559375Y-136963237D01*
X219627393Y-136997895D01*
X219627396Y-136997896D01*
X219732221Y-137031955D01*
X219837049Y-137066015D01*
X220054778Y-137100500D01*
X220054779Y-137100500D01*
X220275221Y-137100500D01*
X220275222Y-137100500D01*
X220492951Y-137066015D01*
X220702606Y-136997895D01*
X220899022Y-136897815D01*
X221077365Y-136768242D01*
X221233242Y-136612365D01*
X221362815Y-136434022D01*
X221462895Y-136237606D01*
X221531015Y-136027951D01*
X221565500Y-135810222D01*
X221565500Y-135589778D01*
X221531015Y-135372049D01*
X221496955Y-135267221D01*
X221462896Y-135162396D01*
X221462895Y-135162393D01*
X221428237Y-135094375D01*
X221362815Y-134965978D01*
X221258017Y-134821735D01*
X221233247Y-134787641D01*
X221233243Y-134787636D01*
X221077363Y-134631756D01*
X221077358Y-134631752D01*
X220899025Y-134502187D01*
X220899024Y-134502186D01*
X220899022Y-134502185D01*
X220836096Y-134470122D01*
X220702606Y-134402104D01*
X220702603Y-134402103D01*
X220492952Y-134333985D01*
X220384086Y-134316742D01*
X220275222Y-134299500D01*
X220054778Y-134299500D01*
X219982201Y-134310995D01*
X219837047Y-134333985D01*
X219627396Y-134402103D01*
X219627393Y-134402104D01*
X219430974Y-134502187D01*
X219252641Y-134631752D01*
X219252636Y-134631756D01*
X219202075Y-134682317D01*
X219140752Y-134715801D01*
X219071060Y-134710816D01*
X219015127Y-134668945D01*
X218998213Y-134637968D01*
X218968354Y-134557913D01*
X218968350Y-134557906D01*
X218882190Y-134442812D01*
X218882187Y-134442809D01*
X218767093Y-134356649D01*
X218767086Y-134356645D01*
X218632379Y-134306403D01*
X218632372Y-134306401D01*
X218572844Y-134300000D01*
X217875000Y-134300000D01*
X217875000Y-135324722D01*
X217798694Y-135280667D01*
X217684244Y-135250000D01*
X217565756Y-135250000D01*
X217451306Y-135280667D01*
X217375000Y-135324722D01*
X217375000Y-134300000D01*
X216677155Y-134300000D01*
X216617627Y-134306401D01*
X216617620Y-134306403D01*
X216482913Y-134356645D01*
X216482906Y-134356649D01*
X216367812Y-134442809D01*
X216367809Y-134442812D01*
X216281649Y-134557906D01*
X216281645Y-134557913D01*
X216231403Y-134692620D01*
X216231401Y-134692627D01*
X216225000Y-134752155D01*
X214097762Y-134752155D01*
X213977363Y-134631756D01*
X213977358Y-134631752D01*
X213799025Y-134502187D01*
X213799024Y-134502186D01*
X213799022Y-134502185D01*
X213736096Y-134470122D01*
X213602606Y-134402104D01*
X213602603Y-134402103D01*
X213392952Y-134333985D01*
X213284086Y-134316742D01*
X213175222Y-134299500D01*
X212954778Y-134299500D01*
X212882201Y-134310995D01*
X212737047Y-134333985D01*
X212527396Y-134402103D01*
X212527393Y-134402104D01*
X212330974Y-134502187D01*
X212152641Y-134631752D01*
X212152636Y-134631756D01*
X212102463Y-134681929D01*
X212041140Y-134715413D01*
X211971448Y-134710428D01*
X211915515Y-134668557D01*
X211898601Y-134637580D01*
X211868797Y-134557671D01*
X211868793Y-134557664D01*
X211782547Y-134442455D01*
X211782544Y-134442452D01*
X211667335Y-134356206D01*
X211667328Y-134356202D01*
X211532482Y-134305908D01*
X211532483Y-134305908D01*
X211472883Y-134299501D01*
X211472881Y-134299500D01*
X211472873Y-134299500D01*
X211472864Y-134299500D01*
X209577129Y-134299500D01*
X209577123Y-134299501D01*
X209517516Y-134305908D01*
X209382671Y-134356202D01*
X209382664Y-134356206D01*
X209267455Y-134442452D01*
X209267452Y-134442455D01*
X209181206Y-134557664D01*
X209181202Y-134557671D01*
X209130908Y-134692517D01*
X209124501Y-134752116D01*
X209124500Y-134752135D01*
X199750500Y-134752135D01*
X199750500Y-103600135D01*
X202969500Y-103600135D01*
X202969500Y-105695870D01*
X202969501Y-105695876D01*
X202975908Y-105755483D01*
X203026202Y-105890328D01*
X203026206Y-105890335D01*
X203112452Y-106005544D01*
X203112455Y-106005547D01*
X203227664Y-106091793D01*
X203227673Y-106091798D01*
X203264914Y-106105688D01*
X203320848Y-106147559D01*
X203345266Y-106213023D01*
X203330415Y-106281296D01*
X203309265Y-106309550D01*
X203278027Y-106340787D01*
X203157715Y-106506386D01*
X203064781Y-106688776D01*
X203001522Y-106883465D01*
X202969500Y-107085648D01*
X202969500Y-107290351D01*
X203001522Y-107492534D01*
X203064781Y-107687223D01*
X203157715Y-107869613D01*
X203278028Y-108035213D01*
X203422786Y-108179971D01*
X203577749Y-108292556D01*
X203588390Y-108300287D01*
X203679840Y-108346883D01*
X203681080Y-108347515D01*
X203731876Y-108395490D01*
X203748671Y-108463311D01*
X203726134Y-108529446D01*
X203681080Y-108568485D01*
X203588386Y-108615715D01*
X203422786Y-108736028D01*
X203278028Y-108880786D01*
X203157715Y-109046386D01*
X203064781Y-109228776D01*
X203001522Y-109423465D01*
X202969500Y-109625648D01*
X202969500Y-109830351D01*
X203001522Y-110032534D01*
X203064781Y-110227223D01*
X203157715Y-110409613D01*
X203278028Y-110575213D01*
X203422786Y-110719971D01*
X203577749Y-110832556D01*
X203588390Y-110840287D01*
X203679840Y-110886883D01*
X203681080Y-110887515D01*
X203731876Y-110935490D01*
X203748671Y-111003311D01*
X203726134Y-111069446D01*
X203681080Y-111108485D01*
X203588386Y-111155715D01*
X203422786Y-111276028D01*
X203278028Y-111420786D01*
X203157715Y-111586386D01*
X203064781Y-111768776D01*
X203001522Y-111963465D01*
X202969500Y-112165648D01*
X202969500Y-112370351D01*
X203001522Y-112572534D01*
X203064781Y-112767223D01*
X203157715Y-112949613D01*
X203278028Y-113115213D01*
X203422786Y-113259971D01*
X203577749Y-113372556D01*
X203588390Y-113380287D01*
X203679840Y-113426883D01*
X203681080Y-113427515D01*
X203731876Y-113475490D01*
X203748671Y-113543311D01*
X203726134Y-113609446D01*
X203681080Y-113648485D01*
X203588386Y-113695715D01*
X203422786Y-113816028D01*
X203278028Y-113960786D01*
X203157715Y-114126386D01*
X203064781Y-114308776D01*
X203001522Y-114503465D01*
X202969500Y-114705648D01*
X202969500Y-114910351D01*
X203001522Y-115112534D01*
X203064781Y-115307223D01*
X203157715Y-115489613D01*
X203278028Y-115655213D01*
X203422786Y-115799971D01*
X203577749Y-115912556D01*
X203588390Y-115920287D01*
X203679840Y-115966883D01*
X203681080Y-115967515D01*
X203731876Y-116015490D01*
X203748671Y-116083311D01*
X203726134Y-116149446D01*
X203681080Y-116188485D01*
X203588386Y-116235715D01*
X203422786Y-116356028D01*
X203278028Y-116500786D01*
X203157715Y-116666386D01*
X203064781Y-116848776D01*
X203001522Y-117043465D01*
X202969500Y-117245648D01*
X202969500Y-117450351D01*
X203001522Y-117652534D01*
X203064781Y-117847223D01*
X203157715Y-118029613D01*
X203278028Y-118195213D01*
X203422786Y-118339971D01*
X203577749Y-118452556D01*
X203588390Y-118460287D01*
X203679840Y-118506883D01*
X203681080Y-118507515D01*
X203731876Y-118555490D01*
X203748671Y-118623311D01*
X203726134Y-118689446D01*
X203681080Y-118728485D01*
X203588386Y-118775715D01*
X203422786Y-118896028D01*
X203278028Y-119040786D01*
X203157715Y-119206386D01*
X203064781Y-119388776D01*
X203001522Y-119583465D01*
X202969500Y-119785648D01*
X202969500Y-119990351D01*
X203001522Y-120192534D01*
X203064781Y-120387223D01*
X203157715Y-120569613D01*
X203278028Y-120735213D01*
X203422786Y-120879971D01*
X203577749Y-120992556D01*
X203588390Y-121000287D01*
X203679840Y-121046883D01*
X203681080Y-121047515D01*
X203731876Y-121095490D01*
X203748671Y-121163311D01*
X203726134Y-121229446D01*
X203681080Y-121268485D01*
X203588386Y-121315715D01*
X203422786Y-121436028D01*
X203278028Y-121580786D01*
X203157715Y-121746386D01*
X203064781Y-121928776D01*
X203001522Y-122123465D01*
X202969500Y-122325648D01*
X202969500Y-122530351D01*
X203001522Y-122732534D01*
X203064781Y-122927223D01*
X203157715Y-123109613D01*
X203278028Y-123275213D01*
X203422786Y-123419971D01*
X203577749Y-123532556D01*
X203588390Y-123540287D01*
X203704607Y-123599503D01*
X203770776Y-123633218D01*
X203770778Y-123633218D01*
X203770781Y-123633220D01*
X203875137Y-123667127D01*
X203965465Y-123696477D01*
X204066557Y-123712488D01*
X204167648Y-123728500D01*
X204167649Y-123728500D01*
X204772351Y-123728500D01*
X204772352Y-123728500D01*
X204974534Y-123696477D01*
X205169219Y-123633220D01*
X205351610Y-123540287D01*
X205444590Y-123472732D01*
X205517213Y-123419971D01*
X205517215Y-123419968D01*
X205517219Y-123419966D01*
X205661966Y-123275219D01*
X205661968Y-123275215D01*
X205661971Y-123275213D01*
X205714732Y-123202590D01*
X205782287Y-123109610D01*
X205875220Y-122927219D01*
X205938477Y-122732534D01*
X205970500Y-122530352D01*
X205970500Y-122325648D01*
X205938477Y-122123466D01*
X205875220Y-121928781D01*
X205875218Y-121928778D01*
X205875218Y-121928776D01*
X205841503Y-121862607D01*
X205782287Y-121746390D01*
X205774556Y-121735749D01*
X205661971Y-121580786D01*
X205517213Y-121436028D01*
X205351614Y-121315715D01*
X205345006Y-121312348D01*
X205258917Y-121268483D01*
X205208123Y-121220511D01*
X205191328Y-121152690D01*
X205213865Y-121086555D01*
X205258917Y-121047516D01*
X205351610Y-121000287D01*
X205372770Y-120984913D01*
X205517213Y-120879971D01*
X205517215Y-120879968D01*
X205517219Y-120879966D01*
X205661966Y-120735219D01*
X205661968Y-120735215D01*
X205661971Y-120735213D01*
X205714732Y-120662590D01*
X205782287Y-120569610D01*
X205875220Y-120387219D01*
X205938477Y-120192534D01*
X205970500Y-119990352D01*
X205970500Y-119785648D01*
X205959200Y-119714306D01*
X205938477Y-119583465D01*
X205909127Y-119493137D01*
X205875220Y-119388781D01*
X205875218Y-119388778D01*
X205875218Y-119388776D01*
X205782419Y-119206650D01*
X205782287Y-119206390D01*
X205774556Y-119195749D01*
X205661971Y-119040786D01*
X205517213Y-118896028D01*
X205351614Y-118775715D01*
X205345006Y-118772348D01*
X205258917Y-118728483D01*
X205208123Y-118680511D01*
X205191328Y-118612690D01*
X205213865Y-118546555D01*
X205258917Y-118507516D01*
X205351610Y-118460287D01*
X205372770Y-118444913D01*
X205517213Y-118339971D01*
X205517215Y-118339968D01*
X205517219Y-118339966D01*
X205661966Y-118195219D01*
X205661968Y-118195215D01*
X205661971Y-118195213D01*
X205714732Y-118122590D01*
X205782287Y-118029610D01*
X205875220Y-117847219D01*
X205938477Y-117652534D01*
X205970500Y-117450352D01*
X205970500Y-117245648D01*
X205938477Y-117043466D01*
X205875220Y-116848781D01*
X205875218Y-116848778D01*
X205875218Y-116848776D01*
X205841503Y-116782607D01*
X205782287Y-116666390D01*
X205774556Y-116655749D01*
X205661971Y-116500786D01*
X205517213Y-116356028D01*
X205351614Y-116235715D01*
X205345006Y-116232348D01*
X205258917Y-116188483D01*
X205208123Y-116140511D01*
X205191328Y-116072690D01*
X205213865Y-116006555D01*
X205258917Y-115967516D01*
X205351610Y-115920287D01*
X205372770Y-115904913D01*
X205517213Y-115799971D01*
X205517215Y-115799968D01*
X205517219Y-115799966D01*
X205661966Y-115655219D01*
X205661968Y-115655215D01*
X205661971Y-115655213D01*
X205714732Y-115582590D01*
X205782287Y-115489610D01*
X205875220Y-115307219D01*
X205938477Y-115112534D01*
X205970500Y-114910352D01*
X205970500Y-114705648D01*
X205938477Y-114503466D01*
X205875220Y-114308781D01*
X205875218Y-114308778D01*
X205875218Y-114308776D01*
X205841503Y-114242607D01*
X205782287Y-114126390D01*
X205774556Y-114115749D01*
X205661971Y-113960786D01*
X205517213Y-113816028D01*
X205351614Y-113695715D01*
X205345006Y-113692348D01*
X205258917Y-113648483D01*
X205208123Y-113600511D01*
X205191328Y-113532690D01*
X205213865Y-113466555D01*
X205258917Y-113427516D01*
X205351610Y-113380287D01*
X205372770Y-113364913D01*
X205517213Y-113259971D01*
X205517215Y-113259968D01*
X205517219Y-113259966D01*
X205661966Y-113115219D01*
X205661968Y-113115215D01*
X205661971Y-113115213D01*
X205714732Y-113042590D01*
X205782287Y-112949610D01*
X205875220Y-112767219D01*
X205938477Y-112572534D01*
X205970500Y-112370352D01*
X205970500Y-112165648D01*
X205938477Y-111963466D01*
X205875220Y-111768781D01*
X205875218Y-111768778D01*
X205875218Y-111768776D01*
X205841503Y-111702607D01*
X205782287Y-111586390D01*
X205774556Y-111575749D01*
X205661971Y-111420786D01*
X205517213Y-111276028D01*
X205351614Y-111155715D01*
X205345006Y-111152348D01*
X205258917Y-111108483D01*
X205208123Y-111060511D01*
X205191328Y-110992690D01*
X205213865Y-110926555D01*
X205258917Y-110887516D01*
X205351610Y-110840287D01*
X205372770Y-110824913D01*
X205517213Y-110719971D01*
X205517215Y-110719968D01*
X205517219Y-110719966D01*
X205661966Y-110575219D01*
X205661968Y-110575215D01*
X205661971Y-110575213D01*
X205714732Y-110502590D01*
X205782287Y-110409610D01*
X205875220Y-110227219D01*
X205938477Y-110032534D01*
X205970500Y-109830352D01*
X205970500Y-109625648D01*
X205938477Y-109423466D01*
X205875220Y-109228781D01*
X205875218Y-109228778D01*
X205875218Y-109228776D01*
X205841503Y-109162607D01*
X205782287Y-109046390D01*
X205774556Y-109035749D01*
X205661971Y-108880786D01*
X205517213Y-108736028D01*
X205351614Y-108615715D01*
X205345006Y-108612348D01*
X205258917Y-108568483D01*
X205208123Y-108520511D01*
X205191328Y-108452690D01*
X205213865Y-108386555D01*
X205258917Y-108347516D01*
X205351610Y-108300287D01*
X205372770Y-108284913D01*
X205517213Y-108179971D01*
X205517215Y-108179968D01*
X205517219Y-108179966D01*
X205661966Y-108035219D01*
X205661968Y-108035215D01*
X205661971Y-108035213D01*
X205714732Y-107962590D01*
X205782287Y-107869610D01*
X205875220Y-107687219D01*
X205938477Y-107492534D01*
X205970500Y-107290352D01*
X205970500Y-107085648D01*
X205938477Y-106883466D01*
X205875220Y-106688781D01*
X205875218Y-106688778D01*
X205875218Y-106688776D01*
X205841503Y-106622607D01*
X205782287Y-106506390D01*
X205774556Y-106495749D01*
X205661971Y-106340786D01*
X205630736Y-106309551D01*
X205597251Y-106248228D01*
X205602235Y-106178536D01*
X205644107Y-106122603D01*
X205675080Y-106105689D01*
X205712331Y-106091796D01*
X205827546Y-106005546D01*
X205913796Y-105890331D01*
X205964091Y-105755483D01*
X205970500Y-105695873D01*
X205970499Y-103600128D01*
X205964091Y-103540517D01*
X205962300Y-103535715D01*
X205917401Y-103415333D01*
X205912417Y-103345641D01*
X205945902Y-103284318D01*
X206007226Y-103250834D01*
X206033583Y-103248000D01*
X226496561Y-103248000D01*
X226563600Y-103267685D01*
X226609355Y-103320489D01*
X226619299Y-103389647D01*
X226590274Y-103453203D01*
X226552856Y-103482485D01*
X226448385Y-103535715D01*
X226282786Y-103656028D01*
X226138028Y-103800786D01*
X226017715Y-103966386D01*
X225924781Y-104148776D01*
X225861522Y-104343465D01*
X225829500Y-104545648D01*
X225829500Y-104750351D01*
X225861522Y-104952534D01*
X225924781Y-105147223D01*
X226017715Y-105329613D01*
X226138028Y-105495213D01*
X226282786Y-105639971D01*
X226437749Y-105752556D01*
X226448390Y-105760287D01*
X226539840Y-105806883D01*
X226541080Y-105807515D01*
X226591876Y-105855490D01*
X226608671Y-105923311D01*
X226586134Y-105989446D01*
X226541080Y-106028485D01*
X226448386Y-106075715D01*
X226282786Y-106196028D01*
X226138028Y-106340786D01*
X226017715Y-106506386D01*
X225924781Y-106688776D01*
X225861522Y-106883465D01*
X225829500Y-107085648D01*
X225829500Y-107290351D01*
X225861522Y-107492534D01*
X225924781Y-107687223D01*
X226017715Y-107869613D01*
X226138028Y-108035213D01*
X226282786Y-108179971D01*
X226437749Y-108292556D01*
X226448390Y-108300287D01*
X226539840Y-108346883D01*
X226541080Y-108347515D01*
X226591876Y-108395490D01*
X226608671Y-108463311D01*
X226586134Y-108529446D01*
X226541080Y-108568485D01*
X226448386Y-108615715D01*
X226282786Y-108736028D01*
X226138028Y-108880786D01*
X226017715Y-109046386D01*
X225924781Y-109228776D01*
X225861522Y-109423465D01*
X225829500Y-109625648D01*
X225829500Y-109830351D01*
X225861522Y-110032534D01*
X225924781Y-110227223D01*
X226017715Y-110409613D01*
X226138028Y-110575213D01*
X226282786Y-110719971D01*
X226437749Y-110832556D01*
X226448390Y-110840287D01*
X226539840Y-110886883D01*
X226541080Y-110887515D01*
X226591876Y-110935490D01*
X226608671Y-111003311D01*
X226586134Y-111069446D01*
X226541080Y-111108485D01*
X226448386Y-111155715D01*
X226282786Y-111276028D01*
X226138028Y-111420786D01*
X226017715Y-111586386D01*
X225924781Y-111768776D01*
X225861522Y-111963465D01*
X225829500Y-112165648D01*
X225829500Y-112370351D01*
X225861522Y-112572534D01*
X225924781Y-112767223D01*
X226017715Y-112949613D01*
X226138028Y-113115213D01*
X226282786Y-113259971D01*
X226437749Y-113372556D01*
X226448390Y-113380287D01*
X226539840Y-113426883D01*
X226541080Y-113427515D01*
X226591876Y-113475490D01*
X226608671Y-113543311D01*
X226586134Y-113609446D01*
X226541080Y-113648485D01*
X226448386Y-113695715D01*
X226282786Y-113816028D01*
X226138028Y-113960786D01*
X226017715Y-114126386D01*
X225924781Y-114308776D01*
X225861522Y-114503465D01*
X225829500Y-114705648D01*
X225829500Y-114910351D01*
X225861522Y-115112534D01*
X225924781Y-115307223D01*
X226017715Y-115489613D01*
X226138028Y-115655213D01*
X226282786Y-115799971D01*
X226437749Y-115912556D01*
X226448390Y-115920287D01*
X226539840Y-115966883D01*
X226541080Y-115967515D01*
X226591876Y-116015490D01*
X226608671Y-116083311D01*
X226586134Y-116149446D01*
X226541080Y-116188485D01*
X226448386Y-116235715D01*
X226282786Y-116356028D01*
X226138028Y-116500786D01*
X226017715Y-116666386D01*
X225924781Y-116848776D01*
X225861522Y-117043465D01*
X225829500Y-117245648D01*
X225829500Y-117450351D01*
X225861522Y-117652534D01*
X225924781Y-117847223D01*
X226017715Y-118029613D01*
X226138028Y-118195213D01*
X226282786Y-118339971D01*
X226437749Y-118452556D01*
X226448390Y-118460287D01*
X226520424Y-118496990D01*
X226541629Y-118507795D01*
X226592425Y-118555770D01*
X226609220Y-118623591D01*
X226586682Y-118689726D01*
X226541629Y-118728765D01*
X226448650Y-118776140D01*
X226283105Y-118896417D01*
X226283104Y-118896417D01*
X226138417Y-119041104D01*
X226138417Y-119041105D01*
X226018140Y-119206650D01*
X225925244Y-119388970D01*
X225862009Y-119583586D01*
X225853391Y-119638000D01*
X226954722Y-119638000D01*
X226910667Y-119714306D01*
X226880000Y-119828756D01*
X226880000Y-119947244D01*
X226910667Y-120061694D01*
X226954722Y-120138000D01*
X225853391Y-120138000D01*
X225862009Y-120192413D01*
X225925244Y-120387029D01*
X226018140Y-120569349D01*
X226138417Y-120734894D01*
X226138417Y-120734895D01*
X226283104Y-120879582D01*
X226448652Y-120999861D01*
X226541628Y-121047234D01*
X226592425Y-121095208D01*
X226609220Y-121163029D01*
X226586683Y-121229164D01*
X226541630Y-121268203D01*
X226448388Y-121315713D01*
X226282786Y-121436028D01*
X226138028Y-121580786D01*
X226017715Y-121746386D01*
X225924781Y-121928776D01*
X225861522Y-122123465D01*
X225829500Y-122325648D01*
X225829500Y-122530351D01*
X225861522Y-122732534D01*
X225924781Y-122927223D01*
X226017715Y-123109613D01*
X226138028Y-123275213D01*
X226282786Y-123419971D01*
X226437749Y-123532556D01*
X226448390Y-123540287D01*
X226564607Y-123599503D01*
X226630776Y-123633218D01*
X226630778Y-123633218D01*
X226630781Y-123633220D01*
X226735137Y-123667127D01*
X226825465Y-123696477D01*
X226926557Y-123712488D01*
X227027648Y-123728500D01*
X227027649Y-123728500D01*
X227632351Y-123728500D01*
X227632352Y-123728500D01*
X227834534Y-123696477D01*
X228029219Y-123633220D01*
X228211610Y-123540287D01*
X228304590Y-123472732D01*
X228377213Y-123419971D01*
X228377215Y-123419968D01*
X228377219Y-123419966D01*
X228521966Y-123275219D01*
X228521968Y-123275215D01*
X228521971Y-123275213D01*
X228574732Y-123202590D01*
X228642287Y-123109610D01*
X228735220Y-122927219D01*
X228798477Y-122732534D01*
X228830500Y-122530352D01*
X228830500Y-122325648D01*
X228798477Y-122123466D01*
X228735220Y-121928781D01*
X228735218Y-121928778D01*
X228735218Y-121928776D01*
X228701503Y-121862607D01*
X228642287Y-121746390D01*
X228634556Y-121735749D01*
X228521971Y-121580786D01*
X228377213Y-121436028D01*
X228211611Y-121315713D01*
X228118369Y-121268203D01*
X228067574Y-121220229D01*
X228050779Y-121152407D01*
X228073317Y-121086273D01*
X228118371Y-121047234D01*
X228211347Y-120999861D01*
X228376894Y-120879582D01*
X228376895Y-120879582D01*
X228521582Y-120734895D01*
X228521582Y-120734894D01*
X228641859Y-120569349D01*
X228734755Y-120387029D01*
X228797990Y-120192413D01*
X228806609Y-120138000D01*
X227705278Y-120138000D01*
X227749333Y-120061694D01*
X227780000Y-119947244D01*
X227780000Y-119828756D01*
X227749333Y-119714306D01*
X227705278Y-119638000D01*
X228806609Y-119638000D01*
X228797990Y-119583586D01*
X228734755Y-119388970D01*
X228641859Y-119206650D01*
X228521582Y-119041105D01*
X228521582Y-119041104D01*
X228376895Y-118896417D01*
X228211349Y-118776140D01*
X228118370Y-118728765D01*
X228067574Y-118680790D01*
X228050779Y-118612969D01*
X228073316Y-118546835D01*
X228118370Y-118507795D01*
X228118920Y-118507515D01*
X228211610Y-118460287D01*
X228232770Y-118444913D01*
X228377213Y-118339971D01*
X228377215Y-118339968D01*
X228377219Y-118339966D01*
X228521966Y-118195219D01*
X228521968Y-118195215D01*
X228521971Y-118195213D01*
X228574732Y-118122590D01*
X228642287Y-118029610D01*
X228735220Y-117847219D01*
X228798477Y-117652534D01*
X228830500Y-117450352D01*
X228830500Y-117245648D01*
X228798477Y-117043466D01*
X228735220Y-116848781D01*
X228735218Y-116848778D01*
X228735218Y-116848776D01*
X228701503Y-116782607D01*
X228642287Y-116666390D01*
X228634556Y-116655749D01*
X228521971Y-116500786D01*
X228377213Y-116356028D01*
X228211614Y-116235715D01*
X228205006Y-116232348D01*
X228118917Y-116188483D01*
X228068123Y-116140511D01*
X228051328Y-116072690D01*
X228073865Y-116006555D01*
X228118917Y-115967516D01*
X228211610Y-115920287D01*
X228232770Y-115904913D01*
X228377213Y-115799971D01*
X228377215Y-115799968D01*
X228377219Y-115799966D01*
X228521966Y-115655219D01*
X228521968Y-115655215D01*
X228521971Y-115655213D01*
X228574732Y-115582590D01*
X228642287Y-115489610D01*
X228735220Y-115307219D01*
X228798477Y-115112534D01*
X228830500Y-114910352D01*
X228830500Y-114705648D01*
X228798477Y-114503466D01*
X228735220Y-114308781D01*
X228735218Y-114308778D01*
X228735218Y-114308776D01*
X228701503Y-114242607D01*
X228642287Y-114126390D01*
X228634556Y-114115749D01*
X228521971Y-113960786D01*
X228377213Y-113816028D01*
X228211614Y-113695715D01*
X228205006Y-113692348D01*
X228118917Y-113648483D01*
X228068123Y-113600511D01*
X228051328Y-113532690D01*
X228073865Y-113466555D01*
X228118917Y-113427516D01*
X228211610Y-113380287D01*
X228232770Y-113364913D01*
X228377213Y-113259971D01*
X228377215Y-113259968D01*
X228377219Y-113259966D01*
X228521966Y-113115219D01*
X228521968Y-113115215D01*
X228521971Y-113115213D01*
X228574732Y-113042590D01*
X228642287Y-112949610D01*
X228735220Y-112767219D01*
X228798477Y-112572534D01*
X228830500Y-112370352D01*
X228830500Y-112165648D01*
X228798477Y-111963466D01*
X228735220Y-111768781D01*
X228735218Y-111768778D01*
X228735218Y-111768776D01*
X228701503Y-111702607D01*
X228642287Y-111586390D01*
X228634556Y-111575749D01*
X228521971Y-111420786D01*
X228377213Y-111276028D01*
X228211614Y-111155715D01*
X228205006Y-111152348D01*
X228118917Y-111108483D01*
X228068123Y-111060511D01*
X228051328Y-110992690D01*
X228073865Y-110926555D01*
X228118917Y-110887516D01*
X228211610Y-110840287D01*
X228232770Y-110824913D01*
X228377213Y-110719971D01*
X228377215Y-110719968D01*
X228377219Y-110719966D01*
X228521966Y-110575219D01*
X228521968Y-110575215D01*
X228521971Y-110575213D01*
X228574732Y-110502590D01*
X228642287Y-110409610D01*
X228735220Y-110227219D01*
X228798477Y-110032534D01*
X228830500Y-109830352D01*
X228830500Y-109625648D01*
X228798477Y-109423466D01*
X228735220Y-109228781D01*
X228735218Y-109228778D01*
X228735218Y-109228776D01*
X228701503Y-109162607D01*
X228642287Y-109046390D01*
X228634556Y-109035749D01*
X228521971Y-108880786D01*
X228377213Y-108736028D01*
X228211614Y-108615715D01*
X228205006Y-108612348D01*
X228118917Y-108568483D01*
X228068123Y-108520511D01*
X228051328Y-108452690D01*
X228073865Y-108386555D01*
X228118917Y-108347516D01*
X228211610Y-108300287D01*
X228232770Y-108284913D01*
X228377213Y-108179971D01*
X228377215Y-108179968D01*
X228377219Y-108179966D01*
X228521966Y-108035219D01*
X228521968Y-108035215D01*
X228521971Y-108035213D01*
X228574732Y-107962590D01*
X228642287Y-107869610D01*
X228735220Y-107687219D01*
X228798477Y-107492534D01*
X228830500Y-107290352D01*
X228830500Y-107085648D01*
X228798477Y-106883466D01*
X228735220Y-106688781D01*
X228735218Y-106688778D01*
X228735218Y-106688776D01*
X228701503Y-106622607D01*
X228642287Y-106506390D01*
X228634556Y-106495749D01*
X228521971Y-106340786D01*
X228377213Y-106196028D01*
X228211614Y-106075715D01*
X228205006Y-106072348D01*
X228118917Y-106028483D01*
X228068123Y-105980511D01*
X228051328Y-105912690D01*
X228073865Y-105846555D01*
X228118917Y-105807516D01*
X228211610Y-105760287D01*
X228232770Y-105744913D01*
X228377213Y-105639971D01*
X228377215Y-105639968D01*
X228377219Y-105639966D01*
X228521966Y-105495219D01*
X228521968Y-105495215D01*
X228521971Y-105495213D01*
X228574732Y-105422590D01*
X228642287Y-105329610D01*
X228735220Y-105147219D01*
X228798477Y-104952534D01*
X228830500Y-104750352D01*
X228830500Y-104545648D01*
X228798477Y-104343466D01*
X228735220Y-104148781D01*
X228735218Y-104148778D01*
X228735218Y-104148776D01*
X228701503Y-104082607D01*
X228642287Y-103966390D01*
X228634556Y-103955749D01*
X228521971Y-103800786D01*
X228377213Y-103656028D01*
X228211614Y-103535715D01*
X228107144Y-103482485D01*
X228056348Y-103434510D01*
X228039553Y-103366689D01*
X228062090Y-103300555D01*
X228116805Y-103257103D01*
X228163439Y-103248000D01*
X228720000Y-103248000D01*
X228720000Y-96448000D01*
X203120000Y-96448000D01*
X203120000Y-103239102D01*
X203100315Y-103306141D01*
X203095267Y-103313413D01*
X203026203Y-103405669D01*
X203026202Y-103405671D01*
X202975908Y-103540517D01*
X202969501Y-103600116D01*
X202969501Y-103600123D01*
X202969500Y-103600135D01*
X199750500Y-103600135D01*
X199750500Y-95521153D01*
X200699500Y-95521153D01*
X200699500Y-95678846D01*
X200730261Y-95833489D01*
X200730264Y-95833501D01*
X200790602Y-95979172D01*
X200790609Y-95979185D01*
X200878210Y-96110288D01*
X200878213Y-96110292D01*
X200989707Y-96221786D01*
X200989711Y-96221789D01*
X201120814Y-96309390D01*
X201120827Y-96309397D01*
X201266498Y-96369735D01*
X201266503Y-96369737D01*
X201421153Y-96400499D01*
X201421156Y-96400500D01*
X201421158Y-96400500D01*
X201578844Y-96400500D01*
X201578845Y-96400499D01*
X201733497Y-96369737D01*
X201879179Y-96309394D01*
X202010289Y-96221789D01*
X202121789Y-96110289D01*
X202209394Y-95979179D01*
X202269737Y-95833497D01*
X202289113Y-95736085D01*
X202300638Y-95678150D01*
X202333023Y-95616239D01*
X202334516Y-95614718D01*
X203012417Y-94936819D01*
X203073740Y-94903334D01*
X203100098Y-94900500D01*
X205517060Y-94900500D01*
X205584099Y-94920185D01*
X205604736Y-94936814D01*
X205689708Y-95021786D01*
X205689712Y-95021790D01*
X205820814Y-95109390D01*
X205820827Y-95109397D01*
X205966498Y-95169735D01*
X205966503Y-95169737D01*
X206121153Y-95200499D01*
X206121156Y-95200500D01*
X206121158Y-95200500D01*
X206278844Y-95200500D01*
X206278845Y-95200499D01*
X206433497Y-95169737D01*
X206579179Y-95109394D01*
X206710289Y-95021789D01*
X206821789Y-94910289D01*
X206909394Y-94779179D01*
X206969737Y-94633497D01*
X207000500Y-94478842D01*
X207000500Y-94321158D01*
X207000500Y-94321155D01*
X207000499Y-94321153D01*
X206979684Y-94216510D01*
X206969737Y-94166503D01*
X206930102Y-94070814D01*
X206909397Y-94020827D01*
X206909390Y-94020814D01*
X206857657Y-93943390D01*
X206836779Y-93876712D01*
X206855264Y-93809332D01*
X206907243Y-93762642D01*
X206960759Y-93750499D01*
X207849901Y-93750499D01*
X207916940Y-93770184D01*
X207937582Y-93786818D01*
X208631284Y-94480520D01*
X208631286Y-94480521D01*
X208631290Y-94480524D01*
X208768209Y-94559573D01*
X208768216Y-94559577D01*
X208920943Y-94600501D01*
X208920945Y-94600501D01*
X209086654Y-94600501D01*
X209086670Y-94600500D01*
X229713122Y-94600500D01*
X229780161Y-94620185D01*
X229825916Y-94672989D01*
X229827784Y-94677930D01*
X229827932Y-94677869D01*
X229890602Y-94829172D01*
X229890609Y-94829185D01*
X229978210Y-94960288D01*
X229978213Y-94960292D01*
X230089707Y-95071786D01*
X230089711Y-95071789D01*
X230220814Y-95159390D01*
X230220827Y-95159397D01*
X230320060Y-95200500D01*
X230366503Y-95219737D01*
X230521153Y-95250499D01*
X230521156Y-95250500D01*
X230521158Y-95250500D01*
X230678844Y-95250500D01*
X230678845Y-95250499D01*
X230833497Y-95219737D01*
X230979179Y-95159394D01*
X231110289Y-95071789D01*
X231221789Y-94960289D01*
X231309394Y-94829179D01*
X231369737Y-94683497D01*
X231400500Y-94528842D01*
X231400500Y-94371158D01*
X231400500Y-94371155D01*
X231400499Y-94371153D01*
X231369738Y-94216510D01*
X231369737Y-94216503D01*
X231369735Y-94216498D01*
X231309397Y-94070827D01*
X231309390Y-94070814D01*
X231221789Y-93939711D01*
X231221786Y-93939707D01*
X231110292Y-93828213D01*
X231110288Y-93828210D01*
X230979185Y-93740609D01*
X230979172Y-93740602D01*
X230833501Y-93680264D01*
X230833491Y-93680261D01*
X230678151Y-93649362D01*
X230616241Y-93616977D01*
X230614662Y-93615426D01*
X230518717Y-93519481D01*
X230518716Y-93519480D01*
X230431904Y-93469360D01*
X230431904Y-93469359D01*
X230431900Y-93469358D01*
X230381785Y-93440423D01*
X230229057Y-93399499D01*
X230070943Y-93399499D01*
X230063347Y-93399499D01*
X230063331Y-93399500D01*
X226366495Y-93399500D01*
X226299456Y-93379815D01*
X226253701Y-93327011D01*
X226243757Y-93257853D01*
X226266177Y-93202615D01*
X226335048Y-93107820D01*
X226335047Y-93107820D01*
X226335051Y-93107816D01*
X226431557Y-92918412D01*
X226497246Y-92716243D01*
X226530500Y-92506287D01*
X226530500Y-92293713D01*
X226497246Y-92083757D01*
X226431557Y-91881588D01*
X226335051Y-91692184D01*
X226335049Y-91692181D01*
X226335048Y-91692179D01*
X226210109Y-91520213D01*
X226059786Y-91369890D01*
X225887820Y-91244951D01*
X225698414Y-91148444D01*
X225698413Y-91148443D01*
X225698412Y-91148443D01*
X225496243Y-91082754D01*
X225496241Y-91082753D01*
X225496240Y-91082753D01*
X225334957Y-91057208D01*
X225286287Y-91049500D01*
X225073713Y-91049500D01*
X225025042Y-91057208D01*
X224863760Y-91082753D01*
X224661585Y-91148444D01*
X224472179Y-91244951D01*
X224300213Y-91369890D01*
X224149890Y-91520213D01*
X224024949Y-91692182D01*
X224020484Y-91700946D01*
X223972509Y-91751742D01*
X223904688Y-91768536D01*
X223838553Y-91745998D01*
X223799516Y-91700946D01*
X223795050Y-91692182D01*
X223670109Y-91520213D01*
X223519786Y-91369890D01*
X223347820Y-91244951D01*
X223158414Y-91148444D01*
X223158413Y-91148443D01*
X223158412Y-91148443D01*
X222956243Y-91082754D01*
X222956241Y-91082753D01*
X222956240Y-91082753D01*
X222794957Y-91057208D01*
X222746287Y-91049500D01*
X222533713Y-91049500D01*
X222485042Y-91057208D01*
X222323760Y-91082753D01*
X222121585Y-91148444D01*
X221932179Y-91244951D01*
X221760213Y-91369890D01*
X221609890Y-91520213D01*
X221484949Y-91692182D01*
X221480202Y-91701499D01*
X221432227Y-91752293D01*
X221364405Y-91769087D01*
X221298271Y-91746548D01*
X221259234Y-91701495D01*
X221254622Y-91692444D01*
X221129727Y-91520540D01*
X221129723Y-91520535D01*
X220979464Y-91370276D01*
X220979459Y-91370272D01*
X220807557Y-91245379D01*
X220618215Y-91148903D01*
X220416124Y-91083241D01*
X220350000Y-91072768D01*
X220350000Y-91966988D01*
X220292993Y-91934075D01*
X220165826Y-91900000D01*
X220034174Y-91900000D01*
X219907007Y-91934075D01*
X219850000Y-91966988D01*
X219850000Y-91072768D01*
X219849999Y-91072768D01*
X219783875Y-91083241D01*
X219581784Y-91148903D01*
X219392442Y-91245379D01*
X219220540Y-91370272D01*
X219220535Y-91370276D01*
X219070276Y-91520535D01*
X219070272Y-91520540D01*
X218945378Y-91692443D01*
X218940762Y-91701502D01*
X218892784Y-91752295D01*
X218824963Y-91769087D01*
X218758829Y-91746546D01*
X218719794Y-91701493D01*
X218715051Y-91692184D01*
X218715049Y-91692181D01*
X218715048Y-91692179D01*
X218590109Y-91520213D01*
X218439786Y-91369890D01*
X218267820Y-91244951D01*
X218078414Y-91148444D01*
X218078413Y-91148443D01*
X218078412Y-91148443D01*
X217876243Y-91082754D01*
X217876241Y-91082753D01*
X217876240Y-91082753D01*
X217714957Y-91057208D01*
X217666287Y-91049500D01*
X217453713Y-91049500D01*
X217405042Y-91057208D01*
X217243760Y-91082753D01*
X217041585Y-91148444D01*
X216852179Y-91244951D01*
X216680213Y-91369890D01*
X216529890Y-91520213D01*
X216404949Y-91692182D01*
X216400484Y-91700946D01*
X216352509Y-91751742D01*
X216284688Y-91768536D01*
X216218553Y-91745998D01*
X216179516Y-91700946D01*
X216175050Y-91692182D01*
X216050109Y-91520213D01*
X215899786Y-91369890D01*
X215727820Y-91244951D01*
X215538414Y-91148444D01*
X215538413Y-91148443D01*
X215538412Y-91148443D01*
X215336243Y-91082754D01*
X215336241Y-91082753D01*
X215336240Y-91082753D01*
X215174957Y-91057208D01*
X215126287Y-91049500D01*
X214913713Y-91049500D01*
X214865042Y-91057208D01*
X214703760Y-91082753D01*
X214501585Y-91148444D01*
X214312179Y-91244951D01*
X214140213Y-91369890D01*
X213989890Y-91520213D01*
X213864949Y-91692182D01*
X213860484Y-91700946D01*
X213812509Y-91751742D01*
X213744688Y-91768536D01*
X213678553Y-91745998D01*
X213639516Y-91700946D01*
X213635050Y-91692182D01*
X213510109Y-91520213D01*
X213359786Y-91369890D01*
X213187820Y-91244951D01*
X212998414Y-91148444D01*
X212998413Y-91148443D01*
X212998412Y-91148443D01*
X212796243Y-91082754D01*
X212796241Y-91082753D01*
X212796240Y-91082753D01*
X212634957Y-91057208D01*
X212586287Y-91049500D01*
X212373713Y-91049500D01*
X212325042Y-91057208D01*
X212163760Y-91082753D01*
X211961585Y-91148444D01*
X211772179Y-91244951D01*
X211600213Y-91369890D01*
X211449890Y-91520213D01*
X211324949Y-91692182D01*
X211320484Y-91700946D01*
X211272509Y-91751742D01*
X211204688Y-91768536D01*
X211138553Y-91745998D01*
X211099516Y-91700946D01*
X211095050Y-91692182D01*
X210970109Y-91520213D01*
X210819786Y-91369890D01*
X210647820Y-91244951D01*
X210458414Y-91148444D01*
X210458413Y-91148443D01*
X210458412Y-91148443D01*
X210256243Y-91082754D01*
X210256241Y-91082753D01*
X210256240Y-91082753D01*
X210094957Y-91057208D01*
X210046287Y-91049500D01*
X209833713Y-91049500D01*
X209785042Y-91057208D01*
X209623760Y-91082753D01*
X209421585Y-91148444D01*
X209232179Y-91244951D01*
X209060215Y-91369889D01*
X208946673Y-91483431D01*
X208885350Y-91516915D01*
X208815658Y-91511931D01*
X208759725Y-91470059D01*
X208742810Y-91439082D01*
X208693797Y-91307671D01*
X208693793Y-91307664D01*
X208607547Y-91192455D01*
X208607544Y-91192452D01*
X208492335Y-91106206D01*
X208492328Y-91106202D01*
X208357482Y-91055908D01*
X208357483Y-91055908D01*
X208297883Y-91049501D01*
X208297881Y-91049500D01*
X208297873Y-91049500D01*
X208297864Y-91049500D01*
X206502129Y-91049500D01*
X206502123Y-91049501D01*
X206442516Y-91055908D01*
X206307671Y-91106202D01*
X206307664Y-91106206D01*
X206192455Y-91192452D01*
X206192452Y-91192455D01*
X206106206Y-91307664D01*
X206106202Y-91307671D01*
X206055908Y-91442517D01*
X206049501Y-91502116D01*
X206049500Y-91502135D01*
X206049500Y-93297870D01*
X206049501Y-93297876D01*
X206055908Y-93357483D01*
X206093527Y-93458343D01*
X206098511Y-93528035D01*
X206065026Y-93589358D01*
X206019787Y-93618187D01*
X206010854Y-93621440D01*
X205966503Y-93630263D01*
X205820821Y-93690606D01*
X205820626Y-93690735D01*
X205817126Y-93692011D01*
X205810068Y-93692461D01*
X205774684Y-93699500D01*
X202886670Y-93699500D01*
X202886654Y-93699499D01*
X202879058Y-93699499D01*
X202720943Y-93699499D01*
X202644579Y-93719961D01*
X202568214Y-93740423D01*
X202568209Y-93740426D01*
X202431290Y-93819475D01*
X202431282Y-93819481D01*
X201485339Y-94765425D01*
X201424016Y-94798910D01*
X201421850Y-94799361D01*
X201266508Y-94830261D01*
X201266498Y-94830264D01*
X201120827Y-94890602D01*
X201120814Y-94890609D01*
X200989711Y-94978210D01*
X200989707Y-94978213D01*
X200878213Y-95089707D01*
X200878210Y-95089711D01*
X200790609Y-95220814D01*
X200790602Y-95220827D01*
X200730264Y-95366498D01*
X200730261Y-95366510D01*
X200699500Y-95521153D01*
X199750500Y-95521153D01*
X199750500Y-90024500D01*
X199770185Y-89957461D01*
X199822989Y-89911706D01*
X199874500Y-89900500D01*
X231875500Y-89900500D01*
X231942539Y-89920185D01*
G37*
%TD.AperFunction*%
%TD*%
M02*
