%TF.GenerationSoftware,KiCad,Pcbnew,9.0.0*%
%TF.CreationDate,2025-12-11T14:08:25+01:00*%
%TF.ProjectId,rfidReader,72666964-5265-4616-9465-722e6b696361,rev?*%
%TF.SameCoordinates,Original*%
%TF.FileFunction,Soldermask,Top*%
%TF.FilePolarity,Negative*%
%FSLAX46Y46*%
G04 Gerber Fmt 4.6, Leading zero omitted, Abs format (unit mm)*
G04 Created by KiCad (PCBNEW 9.0.0) date 2025-12-11 14:08:25*
%MOMM*%
%LPD*%
G01*
G04 APERTURE LIST*
G04 Aperture macros list*
%AMRoundRect*
0 Rectangle with rounded corners*
0 $1 Rounding radius*
0 $2 $3 $4 $5 $6 $7 $8 $9 X,Y pos of 4 corners*
0 Add a 4 corners polygon primitive as box body*
4,1,4,$2,$3,$4,$5,$6,$7,$8,$9,$2,$3,0*
0 Add four circle primitives for the rounded corners*
1,1,$1+$1,$2,$3*
1,1,$1+$1,$4,$5*
1,1,$1+$1,$6,$7*
1,1,$1+$1,$8,$9*
0 Add four rect primitives between the rounded corners*
20,1,$1+$1,$2,$3,$4,$5,0*
20,1,$1+$1,$4,$5,$6,$7,0*
20,1,$1+$1,$6,$7,$8,$9,0*
20,1,$1+$1,$8,$9,$2,$3,0*%
G04 Aperture macros list end*
%ADD10RoundRect,0.250000X-1.450000X0.400000X-1.450000X-0.400000X1.450000X-0.400000X1.450000X0.400000X0*%
%ADD11C,1.100000*%
%ADD12R,1.100000X2.500000*%
%ADD13O,1.900000X3.500000*%
%ADD14RoundRect,0.075000X-0.075000X-0.200000X0.075000X-0.200000X0.075000X0.200000X-0.075000X0.200000X0*%
%ADD15RoundRect,0.250000X-0.337500X-0.475000X0.337500X-0.475000X0.337500X0.475000X-0.337500X0.475000X0*%
%ADD16RoundRect,0.062500X0.062500X-0.337500X0.062500X0.337500X-0.062500X0.337500X-0.062500X-0.337500X0*%
%ADD17RoundRect,0.062500X0.337500X-0.062500X0.337500X0.062500X-0.337500X0.062500X-0.337500X-0.062500X0*%
%ADD18R,3.250000X3.250000*%
%ADD19RoundRect,0.250000X0.350000X0.450000X-0.350000X0.450000X-0.350000X-0.450000X0.350000X-0.450000X0*%
%ADD20R,1.700000X1.700000*%
%ADD21O,1.700000X1.700000*%
%ADD22R,1.800000X1.800000*%
%ADD23C,1.800000*%
%ADD24R,3.000000X3.000000*%
%ADD25R,2.000000X2.000000*%
%ADD26O,2.000000X1.600000*%
%ADD27RoundRect,0.250000X0.650000X-1.500000X0.650000X1.500000X-0.650000X1.500000X-0.650000X-1.500000X0*%
G04 APERTURE END LIST*
D10*
%TO.C,F2*%
X225200000Y-143951667D03*
X225200000Y-148401667D03*
%TD*%
D11*
%TO.C,J1*%
X217715000Y-158200000D03*
X213115000Y-158200000D03*
D12*
X218915000Y-155450000D03*
X216415000Y-155450000D03*
X214415000Y-155450000D03*
X211915000Y-155450000D03*
D13*
X221115000Y-158200000D03*
X209715000Y-158200000D03*
%TD*%
D14*
%TO.C,U3*%
X215200000Y-152039000D03*
X215700000Y-152039000D03*
X216200000Y-152039000D03*
X216700000Y-152039000D03*
X217200000Y-152039000D03*
X217200000Y-151269000D03*
X216700000Y-151269000D03*
X216200000Y-151269000D03*
X215700000Y-151269000D03*
X215200000Y-151269000D03*
%TD*%
D15*
%TO.C,C2*%
X203642500Y-136706000D03*
X205717500Y-136706000D03*
%TD*%
D16*
%TO.C,U1A1*%
X213700000Y-149008000D03*
X214200000Y-149008000D03*
X214700000Y-149008000D03*
X215200000Y-149008000D03*
X215700000Y-149008000D03*
X216200000Y-149008000D03*
X216700000Y-149008000D03*
D17*
X217650000Y-148058000D03*
X217650000Y-147558000D03*
X217650000Y-147058000D03*
X217650000Y-146558000D03*
X217650000Y-146058000D03*
X217650000Y-145558000D03*
X217650000Y-145058000D03*
D16*
X216700000Y-144108000D03*
X216200000Y-144108000D03*
X215700000Y-144108000D03*
X215200000Y-144108000D03*
X214700000Y-144108000D03*
X214200000Y-144108000D03*
X213700000Y-144108000D03*
D17*
X212750000Y-145058000D03*
X212750000Y-145558000D03*
X212750000Y-146058000D03*
X212750000Y-146558000D03*
X212750000Y-147058000D03*
X212750000Y-147558000D03*
X212750000Y-148058000D03*
D18*
X215200000Y-146558000D03*
%TD*%
D15*
%TO.C,C4*%
X224232500Y-153924000D03*
X226307500Y-153924000D03*
%TD*%
%TO.C,C3*%
X224232500Y-151120333D03*
X226307500Y-151120333D03*
%TD*%
%TO.C,C1*%
X203642500Y-132642000D03*
X205717500Y-132642000D03*
%TD*%
D19*
%TO.C,R8*%
X221400000Y-143500000D03*
X219400000Y-143500000D03*
%TD*%
D20*
%TO.C,U2*%
X207400000Y-92400000D03*
D21*
X209940000Y-92400000D03*
X212480000Y-92400000D03*
X215020000Y-92400000D03*
X217560000Y-92400000D03*
X220100000Y-92400000D03*
X222640000Y-92400000D03*
X225180000Y-92400000D03*
%TD*%
D22*
%TO.C,OK*%
X217625000Y-135700000D03*
D23*
X220165000Y-135700000D03*
%TD*%
D24*
%TO.C,GND*%
X202150000Y-157350000D03*
%TD*%
%TO.C,RX*%
X202150000Y-143350000D03*
%TD*%
D22*
%TO.C,Marche*%
X210525000Y-135700000D03*
D23*
X213065000Y-135700000D03*
%TD*%
D19*
%TO.C,R9*%
X210600000Y-143500000D03*
X208600000Y-143500000D03*
%TD*%
D25*
%TO.C,U1*%
X204470000Y-104648000D03*
D26*
X204470000Y-107188000D03*
X204470000Y-109728000D03*
X204470000Y-112268000D03*
X204470000Y-114808000D03*
X204470000Y-117348000D03*
X204470000Y-119888000D03*
X204470000Y-122428000D03*
X227330000Y-122428000D03*
X227330000Y-119888000D03*
X227330000Y-117348000D03*
X227330000Y-114808000D03*
X227330000Y-112268000D03*
X227330000Y-109728000D03*
X227330000Y-107188000D03*
X227330000Y-104648000D03*
%TD*%
D24*
%TO.C,3.3V*%
X202150000Y-150350000D03*
%TD*%
D27*
%TO.C,D1*%
X225400000Y-140168000D03*
X225400000Y-135168000D03*
%TD*%
M02*
